<svg width="85" height="63" viewBox="0 0 85 63" fill="none" xmlns="http://www.w3.org/2000/svg">
<path d="M74.9926 28.359C72.1003 26.8991 66.6774 26.8822 66.4479 26.8822C65.7603 26.8822 65.2028 27.445 65.2028 28.1393C65.2028 28.8335 65.7603 29.3964 66.4479 29.3964C67.8473 29.3965 71.9102 29.6141 73.8789 30.6079C74.0577 30.6982 74.2477 30.7408 74.4348 30.7408C74.8915 30.7408 75.3313 30.486 75.5494 30.0457C75.857 29.4247 75.6077 28.6696 74.9926 28.359Z" fill="white"/>
<path d="M81.2002 46.2569L76.0579 44.7735C75.8359 44.7095 75.6809 44.5019 75.6809 44.2688V42.5359C76.0992 42.2432 76.4983 41.9157 76.8714 41.5501C78.6793 39.7788 79.6749 37.4029 79.6749 34.8599V32.4685L80.1721 31.4647C80.7178 30.3627 81.0062 29.1289 81.0062 27.8969V21.4187C81.0062 20.7244 80.4487 20.1616 79.761 20.1616H67.7792C63.4223 20.1616 59.8775 23.7405 59.8775 28.1393V28.2142C59.8775 29.2387 60.1174 30.2646 60.5711 31.1808L61.2088 32.4684V34.5216C61.2088 37.7757 62.7971 40.6953 65.2028 42.4522L65.2031 44.2685C65.2031 44.5485 65.2031 44.6645 64.175 44.9612L61.6658 45.685L54.4075 43.0203C54.4335 42.6745 54.318 42.3228 54.0681 42.0578L51.7487 39.5976V35.4676C51.9939 35.2636 52.2357 35.0541 52.4699 34.8326C55.3959 32.0636 57.074 28.1542 57.074 24.1069V20.8086C57.9575 18.8675 58.4053 16.8134 58.4053 14.6979V1.25709C58.4053 0.562843 57.8478 0 57.1602 0H38.5218C31.9625 0 26.6263 5.38773 26.6263 12.0099V14.6983C26.6263 16.8137 27.074 18.8678 27.9575 20.8089V23.6468C27.9575 28.3459 30.0271 32.5795 33.2828 35.3706V39.5978L30.9634 42.058C30.7136 42.323 30.598 42.6746 30.6241 43.0204L22.9633 45.8328C22.4081 46.0366 21.8923 46.3127 21.424 46.6471L20.221 46.0398C23.802 44.4661 24.9364 42.2528 24.9908 42.1428C25.1661 41.789 25.1661 41.3723 24.9908 41.0185C24.0932 39.2059 23.9844 35.8836 23.8971 33.2143C23.8681 32.3256 23.8405 31.486 23.7879 30.7384C23.3634 24.7088 18.8232 20.1616 13.2268 20.1616C7.63041 20.1616 3.09005 24.7086 2.66571 30.7384C2.61309 31.4862 2.58553 32.3257 2.55647 33.2146C2.46915 35.8838 2.36024 39.2057 1.46276 41.0183C1.28745 41.3721 1.28745 41.7888 1.46276 42.1426C1.51722 42.2526 2.64928 44.4614 6.23737 46.0369L2.89598 47.7236C1.10965 48.6261 0 50.4388 0 52.455V61.7422C0 62.4365 0.55748 62.9993 1.24512 62.9993C1.93275 62.9993 2.49023 62.4365 2.49023 61.7422V52.455C2.49023 51.397 3.07245 50.4458 4.00961 49.9727L8.17046 47.8723L9.61778 49.261C10.6298 50.2319 11.9281 50.7172 13.2268 50.7172C14.5252 50.7172 15.8241 50.2316 16.8358 49.261L18.283 47.8725L19.6396 48.5573C19.0008 49.5893 18.6382 50.7995 18.6382 52.0671V61.7426C18.6382 62.4368 19.1957 62.9997 19.8834 62.9997C20.571 62.9997 21.1285 62.4368 21.1285 61.7426V52.0671C21.1285 50.3414 22.2077 48.7856 23.8143 48.1958L31.8913 45.2306L35.2536 50.3228C35.6834 50.9738 36.3722 51.3913 37.1433 51.4684C37.2293 51.477 37.3148 51.4812 37.4002 51.4812C38.0805 51.4812 38.7321 51.2108 39.2192 50.7192L41.2705 48.6482V61.7427C41.2705 62.437 41.828 62.9998 42.5156 62.9998C43.2032 62.9998 43.7607 62.437 43.7607 61.7427V48.6482L45.812 50.7192C46.2989 51.211 46.9506 51.4813 47.631 51.4813C47.7162 51.4813 47.8019 51.4771 47.8877 51.4686C48.659 51.3915 49.3478 50.974 49.7776 50.323L53.1401 45.2309L61.2169 48.1961C62.8233 48.786 63.9027 50.3417 63.9027 52.0675V61.7429C63.9027 62.4372 64.4602 63 65.1479 63C65.8355 63 66.393 62.4372 66.393 61.7429V52.0675C66.393 50.3196 65.7052 48.6804 64.5514 47.468L64.859 47.3794C65.1693 47.2898 65.5926 47.1673 66.0176 46.957L69.1966 50.1666V61.7429C69.1966 62.4372 69.7541 63 70.4418 63C71.1294 63 71.6869 62.4372 71.6869 61.7429V50.1666L74.8438 46.9793C75.0117 47.0654 75.188 47.1382 75.3736 47.1916L80.5161 48.675C81.6898 49.0136 82.5098 50.1109 82.5098 51.3436V61.7429C82.5098 62.4372 83.0672 63 83.7549 63C84.4425 63 85 62.4372 85 61.7429V51.3436C85 48.994 83.4375 46.9023 81.2002 46.2569ZM7.98784 44.0365C5.65881 43.1904 4.49056 42.0624 3.99185 41.4464C4.33185 40.549 4.55231 39.5212 4.70156 38.4362C5.3882 40.0984 6.53819 41.5174 7.98784 42.5298V44.0365ZM15.1207 47.4387C14.0587 48.4574 12.3951 48.4573 11.3334 47.4385L10.1754 46.3276C10.3708 45.958 10.4782 45.539 10.4782 45.1V43.7601C11.3468 44.0341 12.2702 44.182 13.2271 44.182C14.1829 44.182 15.1058 44.0335 15.9759 43.7609L15.9757 45.0998C15.9757 45.539 16.0829 45.9582 16.2785 46.3279L15.1207 47.4387ZM13.2275 41.6678C9.50938 41.6678 6.48474 38.6139 6.48474 34.8602C6.48474 34.166 5.92726 33.6031 5.23962 33.6031C5.16989 33.6031 5.10183 33.6103 5.03525 33.6216C5.03891 33.5134 5.04239 33.4052 5.04604 33.2981C5.07377 32.4337 5.1005 31.6172 5.1498 30.917C5.30885 28.6582 6.20284 26.5768 7.6671 25.0559C9.14447 23.5212 11.1191 22.6761 13.2271 22.6761C15.3352 22.6761 17.3096 23.5212 18.7872 25.0559C20.2514 26.5768 21.1454 28.6582 21.3045 30.917C21.3536 31.6171 21.3805 32.4333 21.4087 33.2976C21.4112 33.3718 21.4137 33.4471 21.4162 33.5218C20.0615 31.4146 17.9694 29.8617 15.2661 28.9847C12.7688 28.1747 10.6208 28.2248 10.5302 28.2271C10.2042 28.2363 9.8947 28.3741 9.66842 28.6111L7.42189 30.9634C6.9446 31.4632 6.95888 32.259 7.45394 32.7409C7.94899 33.2228 8.73724 33.2082 9.21453 32.7086L11.0839 30.7514C12.6937 30.8308 17.8729 31.4389 19.8872 35.917C19.3803 39.217 16.571 41.6678 13.2275 41.6678ZM18.4658 44.0407L18.4659 42.5414C19.9144 41.5345 21.0661 40.1182 21.7532 38.4434C21.9024 39.5259 22.1227 40.5513 22.4621 41.4467C21.9662 42.0568 20.7925 43.1949 18.4658 44.0407ZM30.4478 23.6466V20.5277C30.4478 20.3384 30.4054 20.1515 30.3239 19.9811C29.5227 18.306 29.1165 16.5286 29.1165 14.6983V12.0101C29.1165 6.77406 33.3358 2.51435 38.5218 2.51435H55.9151V14.6984C55.9151 16.5288 55.5088 18.3061 54.7076 19.9812C54.6261 20.1517 54.5838 20.3386 54.5838 20.5278V24.1072C54.5838 27.5116 53.2283 30.6692 50.7669 32.9985C50.4596 33.2892 50.1407 33.5617 49.811 33.8156C49.8037 33.8207 49.7967 33.8262 49.7896 33.8314C47.4838 35.5989 44.6595 36.4579 41.7101 36.265C35.3947 35.8521 30.4478 30.3095 30.4478 23.6466ZM37.4584 48.9412C37.4498 48.9499 37.4297 48.9705 37.389 48.9661C37.3485 48.9621 37.3326 48.9382 37.3258 48.9278L33.4535 43.0633L34.6996 41.7414L40.5741 45.7954L37.4584 48.9412ZM42.5158 44.09L35.773 39.4367V37.0901C37.5177 38.0423 39.4712 38.6379 41.5489 38.7736C41.8771 38.7951 42.2033 38.8056 42.5286 38.8056C44.9094 38.8056 47.2007 38.2311 49.2585 37.1404V39.4367L42.5158 44.09ZM47.7057 48.9281C47.6989 48.9385 47.683 48.9625 47.6425 48.9665C47.6018 48.9717 47.5819 48.9501 47.5731 48.9415L44.4575 45.7959L50.332 41.7417L51.5782 43.0637L47.7057 48.9281ZM70.4418 47.8674L67.6162 45.0148C67.6655 44.7887 67.6934 44.5412 67.6932 44.2681L67.693 43.7376C68.4771 43.9974 69.3036 44.1516 70.1587 44.1775C70.2547 44.1805 70.3498 44.1818 70.4454 44.1818C71.3904 44.1818 72.3128 44.0377 73.1906 43.7626V44.2688C73.1906 44.5195 73.2219 44.7653 73.2806 45.0014L70.4418 47.8674ZM75.1372 39.7459C73.8175 41.0389 72.0742 41.7218 70.2336 41.6644C66.6304 41.5553 63.699 38.3511 63.699 34.522V32.1719C63.699 31.9766 63.654 31.7842 63.5676 31.6097L62.7984 30.0566C62.5167 29.4876 62.3678 28.8506 62.3678 28.2144V28.1395C62.3678 25.1268 64.7954 22.676 67.7792 22.676H78.5159V27.8971C78.5159 28.7408 78.3184 29.5858 77.9447 30.3405L77.3161 31.6097C77.2296 31.7844 77.1846 31.9766 77.1846 32.1719V34.86C77.1846 36.7172 76.4575 38.4523 75.1372 39.7459Z" fill="white"/>
<path d="M78.4296 52.4205C77.742 52.4205 77.1845 52.9833 77.1845 53.6776V61.7422C77.1845 62.4365 77.742 62.9993 78.4296 62.9993C79.1172 62.9993 79.6747 62.4365 79.6747 61.7422V53.6776C79.6747 52.9835 79.1172 52.4205 78.4296 52.4205Z" fill="white"/>
<path d="M6.5704 54.0822C5.88276 54.0822 5.32528 54.645 5.32528 55.3393V61.7422C5.32528 62.4365 5.88276 62.9993 6.5704 62.9993C7.25804 62.9993 7.81552 62.4365 7.81552 61.7422V55.3393C7.81552 54.6452 7.25804 54.0822 6.5704 54.0822Z" fill="white"/>
<path d="M52.7153 15.1537C48.0061 10.3992 38.1532 11.3081 34.1353 11.9196C32.8698 12.1122 31.9514 13.1934 31.9514 14.4906V17.3866C31.9514 18.0809 32.5089 18.6437 33.1965 18.6437C33.8841 18.6437 34.4416 18.0809 34.4416 17.3866V14.4904C34.4416 14.4477 34.4695 14.4112 34.5067 14.4055C36.1116 14.1612 39.2962 13.7844 42.5958 14.0065C46.4786 14.2675 49.2909 15.2516 50.9545 16.9314C51.4408 17.4223 52.2292 17.4223 52.7153 16.9314C53.2015 16.4404 53.2015 15.6444 52.7153 15.1537Z" fill="white"/>
<path d="M27.8714 55.1088C27.1837 55.1088 26.6263 55.6716 26.6263 56.3659V61.7424C26.6263 62.4366 27.1837 62.9995 27.8714 62.9995C28.559 62.9995 29.1165 62.4366 29.1165 61.7424V56.3659C29.1165 55.6718 28.559 55.1088 27.8714 55.1088Z" fill="white"/>
<path d="M57.1602 55.1088C56.4725 55.1088 55.9151 55.6716 55.9151 56.3659V61.7424C55.9151 62.4366 56.4725 62.9995 57.1602 62.9995C57.8478 62.9995 58.4053 62.4366 58.4053 61.7424V56.3659C58.4053 55.6718 57.8478 55.1088 57.1602 55.1088Z" fill="white"/>
</svg>
