<svg width="67" height="67" viewBox="0 0 67 67" fill="none" xmlns="http://www.w3.org/2000/svg">
<path d="M26.6995 11.8143C26.6441 11.327 26.2771 10.9329 25.795 10.8428L22.9587 10.318C22.7947 9.80182 22.5854 9.30114 22.3333 8.82167L23.9748 6.45433C24.2671 6.05959 24.2671 5.52024 23.9748 5.1255C23.3206 4.2961 22.5709 3.54639 21.7415 2.89217C21.3468 2.59988 20.8074 2.59988 20.4127 2.89217L17.9783 4.46667C17.4989 4.21458 16.9982 4.00534 16.482 3.84133L15.9572 1.005C15.8671 0.522879 15.473 0.155915 14.9857 0.1005C13.9328 -0.0335 12.8672 -0.0335 11.8143 0.1005C11.327 0.155915 10.9329 0.522879 10.8428 1.005L10.318 3.84133C9.80182 4.00534 9.30114 4.21458 8.82167 4.46667L6.45433 2.82517C6.05959 2.53288 5.52024 2.53288 5.1255 2.82517C4.29596 3.47939 3.54639 4.2291 2.89217 5.0585C2.59988 5.45324 2.59988 5.99259 2.89217 6.38733L4.46667 8.82167C4.21458 9.30114 4.00534 9.80182 3.84133 10.318L1.005 10.8428C0.522879 10.9329 0.155915 11.327 0.1005 11.8143C-0.0335 12.8672 -0.0335 13.9328 0.1005 14.9857C0.155915 15.473 0.522879 15.8671 1.005 15.9572L3.84133 16.482C4.00534 16.9982 4.21458 17.4989 4.46667 17.9783L2.82517 20.3457C2.53288 20.7404 2.53288 21.2798 2.82517 21.6745C3.47939 22.5039 4.2291 23.2536 5.0585 23.9078C5.45324 24.2001 5.99259 24.2001 6.38733 23.9078L8.82167 22.3333C9.30114 22.5854 9.80182 22.7947 10.318 22.9587L10.8428 25.795C10.9329 26.2771 11.327 26.6441 11.8143 26.6995C12.8672 26.8335 13.9328 26.8335 14.9857 26.6995C15.473 26.6441 15.8671 26.2771 15.9572 25.795L16.482 22.9587C16.9982 22.7947 17.4989 22.5854 17.9783 22.3333L20.3457 23.9748C20.7404 24.2671 21.2798 24.2671 21.6745 23.9748C22.5039 23.3206 23.2536 22.5709 23.9078 21.7415C24.2001 21.3468 24.2001 20.8074 23.9078 20.4127L22.3333 17.9783C22.5854 17.4989 22.7947 16.9982 22.9587 16.482L25.795 15.9572C26.2771 15.8671 26.6441 15.473 26.6995 14.9857C26.8335 13.9328 26.8335 12.8672 26.6995 11.8143ZM24.589 13.4223C24.589 13.5898 24.589 13.7573 24.589 13.936L21.909 14.4273C21.4753 14.5077 21.1297 14.8359 21.0268 15.2648C20.8397 16.0542 20.5267 16.8082 20.1 17.4982C19.8595 17.8682 19.8595 18.3453 20.1 18.7153L21.641 20.9487C21.4161 21.207 21.1735 21.4496 20.9152 21.6745L18.6818 20.1335C18.3118 19.893 17.8347 19.893 17.4647 20.1335C16.7747 20.5602 16.0207 20.8732 15.2313 21.0603C14.8024 21.1632 14.4742 21.5088 14.3938 21.9425L13.9137 24.5667C13.5563 24.5667 13.2437 24.5667 12.8863 24.5667L12.395 21.8867C12.3146 21.453 11.9864 21.1074 11.5575 21.0045C10.7682 20.8173 10.0141 20.5044 9.32417 20.0777C8.95413 19.8372 8.47704 19.8372 8.107 20.0777L5.87367 21.6187C5.6153 21.3938 5.3727 21.1512 5.14783 20.8928L6.68883 18.6595C6.92934 18.2895 6.92934 17.8124 6.68883 17.4423C6.26213 16.7524 5.94918 15.9983 5.762 15.209C5.65913 14.7801 5.31352 14.4519 4.87983 14.3715L2.23333 13.9137C2.23333 13.735 2.23333 13.5675 2.23333 13.4C2.23333 13.2325 2.23333 13.065 2.23333 12.8863L4.9245 12.395C5.35819 12.3146 5.70379 11.9864 5.80667 11.5575C5.99385 10.7682 6.30679 10.0141 6.7335 9.32417C6.95432 8.95288 6.94134 8.48764 6.7 8.12933L5.159 5.896C5.38387 5.63763 5.62646 5.39504 5.88483 5.17017L8.12933 6.7C8.49937 6.9405 8.97646 6.9405 9.3465 6.7C10.0365 6.27329 10.7905 5.96035 11.5798 5.77317C12.0088 5.67029 12.3369 5.32469 12.4173 4.891L12.8863 2.23333H13.9137L14.405 4.91333C14.4854 5.34702 14.8136 5.69263 15.2425 5.7955C16.0318 5.98268 16.7859 6.29563 17.4758 6.72233C17.8459 6.96284 18.323 6.96284 18.693 6.72233L20.9263 5.18133C21.1847 5.4062 21.4273 5.6488 21.6522 5.90717L20.1 8.12933C19.8595 8.49937 19.8595 8.97646 20.1 9.3465C20.5267 10.0365 20.8397 10.7905 21.0268 11.5798C21.1297 12.0088 21.4753 12.3369 21.909 12.4173L24.589 12.9087C24.589 13.0873 24.589 13.2548 24.589 13.4223Z" fill="white"/>
<path d="M66.8995 31.9143C66.8441 31.427 66.4771 31.0329 65.995 30.9428L63.1587 30.418C62.9947 29.9018 62.7854 29.4011 62.5333 28.9217L64.1748 26.5543C64.4671 26.1596 64.4671 25.6202 64.1748 25.2255C63.5206 24.3961 62.7709 23.6464 61.9415 22.9922C61.5468 22.6999 61.0074 22.6999 60.6127 22.9922L58.1783 24.5667C57.6989 24.3146 57.1982 24.1053 56.682 23.9413L56.1572 21.105C56.0671 20.6229 55.673 20.2559 55.1857 20.2005C54.1328 20.0665 53.0672 20.0665 52.0143 20.2005C51.5271 20.2559 51.1329 20.6229 51.0428 21.105L50.518 23.9413C50.0018 24.1053 49.5011 24.3146 49.0217 24.5667L46.6543 22.9252C46.2596 22.6329 45.7202 22.6329 45.3255 22.9252C44.4961 23.5794 43.7464 24.3291 43.0922 25.1585C42.7999 25.5532 42.7999 26.0926 43.0922 26.4873L44.6667 28.9217C44.4146 29.4011 44.2053 29.9018 44.0413 30.418L41.205 30.9428C40.7229 31.0329 40.3559 31.427 40.3005 31.9143C40.1665 32.9672 40.1665 34.0328 40.3005 35.0857C40.3559 35.573 40.7229 35.9671 41.205 36.0572L44.0413 36.582C44.2053 37.0982 44.4146 37.5989 44.6667 38.0783L43.0252 40.4457C42.7329 40.8404 42.7329 41.3798 43.0252 41.7745C43.6794 42.6039 44.4291 43.3536 45.2585 44.0078C45.6532 44.3001 46.1926 44.3001 46.5873 44.0078L49.0217 42.4333C49.5011 42.6854 50.0018 42.8947 50.518 43.0587L51.0428 45.895C51.1329 46.3771 51.5271 46.7441 52.0143 46.7995C53.0672 46.9335 54.1328 46.9335 55.1857 46.7995C55.673 46.7441 56.0671 46.3771 56.1572 45.895L56.682 43.0587C57.1982 42.8947 57.6989 42.6854 58.1783 42.4333L60.5457 44.0748C60.9404 44.3671 61.4798 44.3671 61.8745 44.0748C62.7039 43.4206 63.4536 42.6709 64.1078 41.8415C64.4001 41.4468 64.4001 40.9074 64.1078 40.5127L62.5333 38.0783C62.7854 37.5989 62.9947 37.0982 63.1587 36.582L65.995 36.0572C66.4771 35.9671 66.8441 35.573 66.8995 35.0857C67.0335 34.0328 67.0335 32.9672 66.8995 31.9143ZM64.8337 33.5C64.8337 33.6675 64.7667 33.835 64.7667 34.0137L62.0867 34.505C61.653 34.5854 61.3074 34.9136 61.2045 35.3425C61.0173 36.1318 60.7044 36.886 60.2777 37.5758C60.0372 37.9459 60.0372 38.423 60.2777 38.793L61.8187 41.0263C61.5938 41.2847 61.3512 41.5273 61.0928 41.7522L58.8595 40.2112C58.4895 39.9707 58.0124 39.9707 57.6423 40.2112C56.9524 40.6379 56.1983 40.9508 55.409 41.138C54.9801 41.2409 54.6519 41.5865 54.5715 42.0202L54.1137 44.6667H53.0863L52.595 41.9867C52.5146 41.553 52.1864 41.2074 51.7575 41.1045C50.9682 40.9173 50.2141 40.6044 49.5242 40.1777C49.1541 39.9372 48.677 39.9372 48.307 40.1777L46.0737 41.7187C45.8153 41.4938 45.5727 41.2512 45.3478 40.9928L46.8888 38.7595C47.1293 38.3895 47.1293 37.9124 46.8888 37.5423C46.4621 36.8524 46.1492 36.0983 45.962 35.309C45.8591 34.8801 45.5135 34.5519 45.0798 34.4715L42.4333 34.0137C42.4333 33.835 42.4333 33.6675 42.4333 33.5C42.4333 33.3325 42.4333 33.165 42.4333 32.9863L45.1133 32.495C45.547 32.4146 45.8926 32.0864 45.9955 31.6575C46.1827 30.8682 46.4956 30.1141 46.9223 29.4242C47.1628 29.0541 47.1628 28.577 46.9223 28.207L45.3813 25.9737C45.6062 25.7153 45.8488 25.4727 46.1072 25.2478L48.3405 26.7888C48.7105 27.0293 49.1876 27.0293 49.5577 26.7888C50.2476 26.3621 51.0017 26.0492 51.791 25.862C52.2199 25.7591 52.5481 25.4135 52.6285 24.9798L53.1198 22.2998C53.4772 22.2998 53.7898 22.2998 54.1472 22.2998L54.6385 24.9798C54.7189 25.4135 55.0471 25.7591 55.476 25.862C56.2653 26.0492 57.0194 26.3621 57.7093 26.7888C58.0794 27.0293 58.5565 27.0293 58.9265 26.7888L61.1598 25.2478C61.4182 25.4727 61.6608 25.7153 61.8857 25.9737L60.3447 28.207C60.1042 28.577 60.1042 29.0541 60.3447 29.4242C60.7714 30.1141 61.0843 30.8682 61.2715 31.6575C61.3744 32.0864 61.72 32.4146 62.1537 32.495L64.8337 32.9863C64.8337 33.165 64.8337 33.3325 64.8337 33.5Z" fill="white"/>
<path d="M26.6995 52.0143C26.6441 51.5271 26.2771 51.1329 25.795 51.0428L22.9587 50.518C22.7947 50.0018 22.5854 49.5011 22.3333 49.0217L23.9748 46.6543C24.2671 46.2596 24.2671 45.7202 23.9748 45.3255C23.3206 44.4961 22.5709 43.7464 21.7415 43.0922C21.3468 42.7999 20.8074 42.7999 20.4127 43.0922L17.9783 44.6667C17.4989 44.4146 16.9982 44.2053 16.482 44.0413L15.9572 41.205C15.8671 40.7229 15.473 40.3559 14.9857 40.3005C13.9328 40.1665 12.8672 40.1665 11.8143 40.3005C11.327 40.3559 10.9329 40.7229 10.8428 41.205L10.318 44.0413C9.80182 44.2053 9.30114 44.4146 8.82167 44.6667L6.45433 43.0252C6.05959 42.7329 5.52024 42.7329 5.1255 43.0252C4.29596 43.6794 3.54639 44.4291 2.89217 45.2585C2.59988 45.6532 2.59988 46.1926 2.89217 46.5873L4.46667 49.0217C4.21458 49.5011 4.00534 50.0018 3.84133 50.518L1.005 51.0428C0.522879 51.1329 0.155915 51.5271 0.1005 52.0143C-0.0335 53.0672 -0.0335 54.1328 0.1005 55.1857C0.155915 55.673 0.522879 56.0671 1.005 56.1572L3.84133 56.682C4.00534 57.1982 4.21458 57.6989 4.46667 58.1783L2.82517 60.5457C2.53288 60.9404 2.53288 61.4798 2.82517 61.8745C3.47939 62.7039 4.2291 63.4536 5.0585 64.1078C5.45324 64.4001 5.99259 64.4001 6.38733 64.1078L8.82167 62.5333C9.30114 62.7854 9.80182 62.9947 10.318 63.1587L10.8428 65.995C10.9329 66.4771 11.327 66.8441 11.8143 66.8995C12.8672 67.0335 13.9328 67.0335 14.9857 66.8995C15.473 66.8441 15.8671 66.4771 15.9572 65.995L16.482 63.1587C16.9982 62.9947 17.4989 62.7854 17.9783 62.5333L20.3457 64.1748C20.7404 64.4671 21.2798 64.4671 21.6745 64.1748C22.5039 63.5206 23.2536 62.7709 23.9078 61.9415C24.2001 61.5468 24.2001 61.0074 23.9078 60.6127L22.3333 58.1783C22.5854 57.6989 22.7947 57.1982 22.9587 56.682L25.795 56.1572C26.2771 56.0671 26.6441 55.673 26.6995 55.1857C26.8335 54.1328 26.8335 53.0672 26.6995 52.0143ZM24.6337 53.6C24.6337 53.7675 24.6337 53.935 24.6337 54.1137L21.9537 54.605C21.52 54.6854 21.1744 55.0136 21.0715 55.4425C20.8843 56.2318 20.5714 56.9859 20.1447 57.6758C19.9042 58.0459 19.9042 58.523 20.1447 58.893L21.6857 61.1263C21.4608 61.3847 21.2182 61.6273 20.9598 61.8522L18.7265 60.3112C18.3565 60.0707 17.8794 60.0707 17.5093 60.3112C16.8194 60.7379 16.0653 61.0508 15.276 61.238C14.8471 61.3409 14.5189 61.6865 14.4385 62.1202L13.9137 64.7667H12.8863L12.395 62.0867C12.3146 61.653 11.9864 61.3074 11.5575 61.2045C10.7682 61.0173 10.0141 60.7044 9.32417 60.2777C8.95413 60.0372 8.47704 60.0372 8.107 60.2777L5.87367 61.8187C5.6153 61.5938 5.3727 61.3512 5.14783 61.0928L6.68883 58.8595C6.92934 58.4895 6.92934 58.0124 6.68883 57.6423C6.26213 56.9524 5.94918 56.1983 5.762 55.409C5.65913 54.9801 5.31352 54.6519 4.87983 54.5715L2.23333 54.1137C2.23333 53.935 2.23333 53.7675 2.23333 53.6C2.23333 53.4325 2.23333 53.265 2.23333 53.0863L4.91333 52.595C5.34702 52.5146 5.69263 52.1864 5.7955 51.7575C5.98268 50.9682 6.29563 50.2141 6.72233 49.5242C6.96284 49.1541 6.96284 48.677 6.72233 48.307L5.18133 46.0737C5.4062 45.8153 5.6488 45.5727 5.90717 45.3478L8.1405 46.8888C8.51054 47.1293 8.98763 47.1293 9.35767 46.8888C10.0476 46.4621 10.8017 46.1492 11.591 45.962C12.0199 45.8591 12.3481 45.5135 12.4285 45.0798L12.9198 42.3998H13.9472L14.4385 45.0798C14.5189 45.5135 14.8471 45.8591 15.276 45.962C16.0653 46.1492 16.8194 46.4621 17.5093 46.8888C17.8794 47.1293 18.3565 47.1293 18.7265 46.8888L20.9598 45.3478C21.2182 45.5727 21.4608 45.8153 21.6857 46.0737L20.1447 48.307C19.9042 48.677 19.9042 49.1541 20.1447 49.5242C20.5714 50.2141 20.8843 50.9682 21.0715 51.7575C21.1744 52.1864 21.52 52.5146 21.9537 52.595L24.6337 53.0863C24.6337 53.265 24.6337 53.4325 24.6337 53.6Z" fill="white"/>
<path d="M27.2829 6.81276L26.3222 8.82879L28.3382 9.78957L29.299 7.77354L27.2829 6.81276Z" fill="white"/>
<path d="M39.3791 12.567L38.4189 14.5834L40.4354 15.5436L41.3955 13.5271L39.3791 12.567Z" fill="white"/>
<path d="M31.3121 8.73568L30.3519 10.7522L32.3684 11.7123L33.3285 9.69579L31.3121 8.73568Z" fill="white"/>
<path d="M47.4411 16.4079L46.481 18.4244L48.4975 19.3845L49.4576 17.368L47.4411 16.4079Z" fill="white"/>
<path d="M43.4157 14.4875L42.4556 16.504L44.4721 17.4641L45.4322 15.4476L43.4157 14.4875Z" fill="white"/>
<path d="M35.3535 10.6462L34.3934 12.6627L36.4099 13.6228L37.37 11.6063L35.3535 10.6462Z" fill="white"/>
<path d="M32.9082 33.1985L31.8362 31.2443L29.882 32.3163L30.2729 33.031L29.48 34.6837L31.5012 35.644L32.4615 33.634L32.2829 33.5447L32.9082 33.1985Z" fill="white"/>
<path d="M22.3727 28.8408L21.4119 30.8568L23.428 31.8176L24.3887 29.8016L22.3727 28.8408Z" fill="white"/>
<path d="M34.4789 34.5967L33.5181 36.6127L35.5342 37.5735L36.4949 35.5575L34.4789 34.5967Z" fill="white"/>
<path d="M38.5163 36.5187L37.5555 38.5347L39.5716 39.4955L40.5324 37.4794L38.5163 36.5187Z" fill="white"/>
<path d="M18.3464 26.9189L17.3856 28.9349L19.4017 29.8957L20.3624 27.8796L18.3464 26.9189Z" fill="white"/>
<path d="M39.9579 50.674L38.0011 51.7502L39.0773 53.7071L41.0342 52.6308L39.9579 50.674Z" fill="white"/>
<path d="M47.7928 46.3595L45.8362 47.4362L46.9129 49.3928L48.8695 48.3161L47.7928 46.3595Z" fill="white"/>
<path d="M36.0552 52.8149L34.0985 53.8916L35.1752 55.8482L37.1319 54.7715L36.0552 52.8149Z" fill="white"/>
<path d="M43.8829 48.5148L41.9258 49.5908L43.0019 51.5479L44.9589 50.4719L43.8829 48.5148Z" fill="white"/>
<path d="M28.2179 57.1274L26.261 58.2036L27.3373 60.1605L29.2941 59.0842L28.2179 57.1274Z" fill="white"/>
<path d="M32.1304 54.9737L30.1738 56.0504L31.2505 58.007L33.2071 56.9303L32.1304 54.9737Z" fill="white"/>
<path d="M27.9166 33.3995L27.5258 33.6117L28.4303 31.7133L26.4091 30.753L25.4488 32.763L27.3918 33.6898L25.9625 34.4715L27.0345 36.4257L28.9998 35.3537L27.9166 33.3995Z" fill="white"/>
<path d="M39.6544 26.936L37.6976 28.0122L38.7738 29.9691L40.7307 28.8928L39.6544 26.936Z" fill="white"/>
<path d="M20.0901 37.6915L18.1334 38.7682L19.2101 40.7248L21.1667 39.6481L20.0901 37.6915Z" fill="white"/>
<path d="M23.9952 35.5565L22.0382 36.6323L23.1139 38.5893L25.071 37.5135L23.9952 35.5565Z" fill="white"/>
<path d="M35.7499 29.0884L33.7931 30.1646L34.8693 32.1215L36.8262 31.0452L35.7499 29.0884Z" fill="white"/>
<path d="M13.4 7.81667C10.3165 7.81667 7.81667 10.3165 7.81667 13.4C7.81667 16.4835 10.3165 18.9833 13.4 18.9833C16.4835 18.9833 18.9833 16.4835 18.9833 13.4C18.9833 10.3165 16.4835 7.81667 13.4 7.81667ZM13.4 16.75C11.5498 16.75 10.05 15.2502 10.05 13.4C10.05 11.5498 11.5498 10.05 13.4 10.05C15.2502 10.05 16.75 11.5498 16.75 13.4C16.75 15.2502 15.2502 16.75 13.4 16.75Z" fill="white"/>
<path d="M53.6 27.9167C50.5165 27.9167 48.0167 30.4165 48.0167 33.5C48.0167 36.5835 50.5165 39.0833 53.6 39.0833C56.6835 39.0833 59.1833 36.5835 59.1833 33.5C59.1833 30.4165 56.6835 27.9167 53.6 27.9167ZM53.6 36.85C51.7498 36.85 50.25 35.3502 50.25 33.5C50.25 31.6498 51.7498 30.15 53.6 30.15C55.4502 30.15 56.95 31.6498 56.95 33.5C56.95 35.3502 55.4502 36.85 53.6 36.85Z" fill="white"/>
<path d="M13.4 48.0167C10.3165 48.0167 7.81667 50.5165 7.81667 53.6C7.81667 56.6835 10.3165 59.1833 13.4 59.1833C16.4835 59.1833 18.9833 56.6835 18.9833 53.6C18.9833 50.5163 16.4835 48.0167 13.4 48.0167ZM13.4 56.95C11.5498 56.95 10.05 55.4502 10.05 53.6C10.05 51.7498 11.5498 50.25 13.4 50.25C15.2502 50.25 16.75 51.7498 16.75 53.6C16.75 55.4502 15.2502 56.95 13.4 56.95Z" fill="white"/>
</svg>
