<svg width="67" height="67" viewBox="0 0 67 67" fill="none" xmlns="http://www.w3.org/2000/svg">
<g clip-path="url(#clip0_158_196)">
<path d="M45.9778 5.24275C40.6101 2.11 34.2182 1.23628 28.2066 2.81356C22.195 4.39083 17.0554 8.29008 13.917 13.6546C12.3619 16.3126 11.3456 19.251 10.9261 22.3018C10.5066 25.3526 10.6921 28.4561 11.4721 31.4353C12.252 34.4144 13.6111 37.2107 15.4717 39.6646C17.3323 42.1185 19.6581 44.1818 22.3161 45.7369C24.9742 47.2919 27.9126 48.3082 30.9634 48.7276C34.0142 49.1471 37.1178 48.9615 40.0969 48.1815C43.0761 47.4016 45.8724 46.0424 48.3262 44.1817C50.7801 42.321 52.8434 39.9952 54.3984 37.3371C57.5388 31.969 58.4182 25.5732 56.843 19.5568C55.2679 13.5404 51.3673 8.39603 45.9993 5.25548C45.9921 5.25123 45.985 5.24699 45.9778 5.24275ZM45.6656 8.1472C47.5858 9.75788 48.5962 12.7072 48.4957 16.5611C48.4636 17.8039 48.3088 19.1285 48.0401 20.506L40.8845 16.3199L45.6656 8.1472ZM43.5953 7.04304L38.8598 15.1353L32.0794 11.1689C33.148 10.2597 34.2274 9.47514 35.294 8.83864C38.4102 6.97872 41.3086 6.37103 43.594 7.04304H43.5953ZM38.6105 4.86286C37.1131 5.26486 35.5888 5.93151 34.0927 6.82462C32.6904 7.66212 31.2961 8.70196 29.9401 9.91667L24.493 6.73015C28.8411 4.49159 33.8313 3.83161 38.6119 4.86286H38.6105ZM50.4072 12.0158C53.3786 15.6025 55.0816 20.0705 55.2513 24.725L50.1767 21.7562C50.5727 19.9794 50.7978 18.2548 50.84 16.622C50.8829 14.9926 50.7395 13.4395 50.4072 12.0158ZM22.1949 8.10231L28.1893 11.6091C26.4628 13.404 24.828 15.4884 23.3586 17.82L16.5622 13.8435C18.0524 11.5846 19.965 9.63493 22.1949 8.10164V8.10231ZM30.2804 12.8325L37.6765 17.1594L33.7376 23.8922L25.3854 19.0052C26.8768 16.6535 28.5438 14.5752 30.2804 12.8325ZM39.7006 18.3439L47.4706 22.8899C46.8033 25.2577 45.809 27.7293 44.4891 30.1815L35.7617 25.0761L39.7006 18.3439ZM49.5597 24.112L55.1823 27.401C54.9383 30.0959 54.176 32.7183 52.9371 35.1241L46.5105 31.3647C47.823 28.942 48.8401 26.4958 49.5597 24.112ZM15.3783 15.8676L22.1634 19.8374C20.8287 22.2386 19.7835 24.6681 19.0325 27.0419L13.1331 23.5914C13.377 20.8962 14.1394 18.2735 15.3783 15.8676ZM24.1874 21.0219L32.5537 25.9163L28.6148 32.6484L21.1175 28.2626C21.8217 25.9029 22.8434 23.4493 24.1874 21.0219ZM34.5778 27.1002L43.3179 32.2136C41.8607 34.5753 40.2225 36.6678 38.5107 38.4379L30.6389 33.8323L34.5778 27.1002ZM45.336 33.3941L51.7526 37.1481C50.2626 39.407 48.3502 41.3567 46.1206 42.89L40.5931 39.656C42.2935 37.8376 43.8968 35.7338 45.336 33.3941ZM13.0641 26.2673L18.3819 29.3782C17.9169 31.3258 17.6583 33.2152 17.6127 34.9948C17.5759 36.3917 17.6777 37.7324 17.9156 38.9846C14.9399 35.3967 13.2342 30.9255 13.0641 26.2673ZM20.5105 30.6237L27.4309 34.6725L22.5057 43.091C22.3851 43.0113 22.2692 42.9269 22.1506 42.8452C20.6472 41.1514 19.8686 38.4567 19.9571 35.0557C19.9932 33.6675 20.1782 32.1761 20.5105 30.6237ZM29.455 35.8564L36.7499 40.1243C35.5593 41.1748 34.3507 42.0666 33.1581 42.7782C30.2958 44.4867 27.6172 45.1386 25.4289 44.7138C25.1274 44.5758 24.8273 44.4284 24.5298 44.2756L29.455 35.8564ZM38.8772 41.3691L43.8218 44.2615C39.8905 46.2847 35.4237 47.0241 31.0502 46.3754C32.2017 45.9549 33.3101 45.4247 34.36 44.7922C35.8883 43.8803 37.4085 42.7292 38.8772 41.3691Z" fill="white"/>
<path d="M48.5133 0.00268729C48.0796 0.0205968 47.6633 0.178416 47.3268 0.452545C46.9902 0.726673 46.7515 1.10238 46.6462 1.52348C46.5409 1.94458 46.5748 2.38844 46.7428 2.78869C46.9107 3.18895 47.2037 3.52408 47.5779 3.74397C55.8337 8.74887 60.5652 17.7396 59.9415 27.1605C59.3177 36.5807 53.4351 44.9128 44.5824 48.8417C35.7297 52.7712 25.3688 51.6275 17.6464 45.8783C17.4347 45.7206 17.194 45.6062 16.9381 45.5415C16.6822 45.4768 16.416 45.4632 16.1548 45.5014C15.8937 45.5396 15.6426 45.6289 15.4159 45.7641C15.1892 45.8994 14.9914 46.0779 14.8337 46.2896C14.676 46.5013 14.5616 46.742 14.4969 46.9979C14.4323 47.2538 14.4187 47.52 14.4569 47.7812C14.4951 48.0423 14.5843 48.2934 14.7196 48.5201C14.8548 48.7468 15.0334 48.9446 15.2451 49.1023C16.9838 50.3966 18.8562 51.5008 20.8302 52.396C16.301 53.6556 13.3999 55.6884 13.3999 58.3858C13.3999 63.1428 21.6952 67 33.4999 67C45.3046 67 53.5999 63.1428 53.5999 58.3858C53.5999 55.7259 50.7826 53.7092 46.3606 52.4469C56.4568 47.9017 63.2318 38.3012 63.9521 27.4258C64.6757 16.4967 59.1636 6.06619 49.661 0.306197C49.3177 0.0917796 48.9177 -0.0140055 48.5133 0.00268729ZM23.8794 53.5866C26.2373 54.3651 28.6798 54.859 31.1549 55.0579V56.4448C31.1549 56.929 31.402 57.3934 31.8417 57.7358C32.2815 58.0782 32.878 58.2706 33.4999 58.2706C34.1218 58.2706 34.7183 58.0782 35.1581 57.7358C35.5978 57.3934 35.8449 56.929 35.8449 56.4448V55.0841C38.383 54.9041 40.8894 54.4136 43.308 53.6235C47.111 54.459 49.5799 55.7614 49.5799 57.2381C49.5799 59.7754 42.3808 61.8323 33.4999 61.8323C24.6191 61.8323 17.4199 59.7754 17.4199 57.2381C17.4199 55.7413 19.9572 54.4214 23.8794 53.5866Z" fill="white"/>
</g>
<defs>
<clipPath id="clip0_158_196">
<rect width="67" height="67" fill="white"/>
</clipPath>
</defs>
</svg>
