<svg width="57" height="69" viewBox="0 0 57 69" fill="none" xmlns="http://www.w3.org/2000/svg">
<path d="M56.75 59.8332L49.5242 50.5436C51.8656 49.844 53.8882 48.3466 55.2407 46.3114C56.9424 43.3701 56.1729 39.7803 55.4284 36.3129C54.9782 34.5317 54.7087 32.7095 54.6244 30.8743C54.7085 29.0374 54.9777 27.2136 55.4284 25.4309C56.1681 21.9611 56.9424 18.3738 55.2407 15.4371C53.4785 12.3925 49.9304 11.2656 46.4986 10.1778C44.7902 9.70714 43.1358 9.05923 41.5622 8.24462C40.1343 7.31839 38.8085 6.24373 37.6068 5.03844C35.0608 2.67538 32.1741 0 28.5 0C24.826 0 21.9393 2.67538 19.3921 5.03726C18.1908 6.24284 16.8653 7.31795 15.4378 8.24462C13.8644 9.05759 12.2104 9.70388 10.5027 10.1731C7.07091 11.2608 3.52274 12.3877 1.76053 15.4324C0.0588869 18.3738 0.828369 21.9635 1.57291 25.4309C2.02311 27.2137 2.29208 29.0374 2.37565 30.8743C2.29163 32.7112 2.02237 34.535 1.57173 36.3177C0.831931 39.7874 0.0576995 43.3748 1.75935 46.3114C3.11366 48.3473 5.13845 49.8443 7.48178 50.5424L0.25007 59.832C-0.152483 60.3497 -0.0591183 61.0957 0.458768 61.4983C0.707544 61.6917 1.02282 61.7782 1.33542 61.7391L9.82585 60.6786L11.9217 68.0125C12.0445 68.4423 12.3984 68.7668 12.8373 68.852C12.9116 68.8661 12.9872 68.8734 13.0629 68.8734C13.4295 68.8737 13.7758 68.7045 14.001 68.415L21.5842 58.6611C23.4503 60.4778 25.9016 61.5722 28.5 61.7486C31.0985 61.5722 33.5498 60.4778 35.4159 58.6611L42.9991 68.4115C43.2235 68.7023 43.5698 68.8728 43.9372 68.8734C44.0129 68.8734 44.0884 68.8661 44.1628 68.852C44.6017 68.7668 44.9556 68.4423 45.0783 68.0125L47.1742 60.6798L55.6647 61.7402C56.3154 61.8219 56.9091 61.3606 56.9908 60.7098C57.03 60.3972 56.9434 60.0819 56.75 59.8332ZM13.5616 65.1103L11.8291 59.0471C11.6681 58.4846 11.1212 58.1234 10.5407 58.1956L3.89086 59.0269L9.85079 51.3653L10.5075 51.5755C12.2136 52.045 13.8659 52.6913 15.4378 53.5039C16.8658 54.4302 18.1916 55.5048 19.3933 56.7101L19.8018 57.0877L13.5616 65.1103ZM28.5 59.3736C25.757 59.3736 23.4497 57.2362 21.0059 54.9705C19.6764 53.6421 18.2078 52.461 16.6253 51.4472C14.9036 50.5459 13.0912 49.8295 11.2188 49.3098C8.08026 48.3135 5.11515 47.373 3.81368 45.1239C2.57158 42.9758 3.21281 39.9822 3.89324 36.8116C4.38292 34.8673 4.67029 32.8777 4.75059 30.8743C4.67073 28.8709 4.38381 26.8813 3.89442 24.9369C3.214 21.7676 2.57277 18.7739 3.81486 16.6246C5.12108 14.3755 8.08145 13.4351 11.2199 12.4388C13.0921 11.919 14.9039 11.2025 16.6253 10.3013C18.2073 9.28752 19.6756 8.10628 21.0047 6.77809C23.4497 4.51239 25.757 2.37494 28.5 2.37494C31.2431 2.37494 33.5504 4.51239 35.9942 6.77809C37.3237 8.10643 38.7923 9.28752 40.3748 10.3013C42.0965 11.2026 43.9088 11.9191 45.7813 12.4388C48.9198 13.4351 51.8849 14.3755 53.1864 16.6246C54.4285 18.7728 53.7873 21.7664 53.1068 24.9369C52.6172 26.8813 52.3298 28.8709 52.2495 30.8743C52.3293 32.8777 52.6163 34.8673 53.1057 36.8116C53.7861 39.981 54.4273 42.9746 53.1852 45.1239C51.879 47.373 48.9186 48.3135 45.7801 49.3098C43.9079 49.8296 42.0962 50.5461 40.3748 51.4472C38.7928 52.461 37.3244 53.6423 35.9954 54.9705C33.5504 57.2362 31.2431 59.3736 28.5 59.3736ZM46.4653 58.1956C45.8848 58.1234 45.338 58.4846 45.1769 59.0471L43.4384 65.1103L37.1995 57.0889L37.608 56.7113C38.8092 55.5057 40.1347 54.4306 41.5622 53.5039C43.1356 52.691 44.7896 52.0447 46.4974 51.5755L47.154 51.3653L53.1152 59.0269L46.4653 58.1956Z" fill="white"/>
<path d="M28.5 9.5C16.6952 9.5 7.12549 19.0697 7.12549 30.8745C7.12549 42.6793 16.6952 52.249 28.5 52.249C40.3048 52.249 49.8745 42.6793 49.8745 30.8745C49.8608 19.0753 40.2992 9.5138 28.5 9.5ZM28.5 49.8741C18.0069 49.8741 9.50043 41.3676 9.50043 30.8745C9.50043 20.3814 18.0069 11.8749 28.5 11.8749C38.9931 11.8749 47.4996 20.3814 47.4996 30.8745C47.4871 41.3626 38.988 49.8616 28.5 49.8741Z" fill="white"/>
<path d="M42.2011 25.9142C41.7543 25.3005 41.0412 24.9372 40.2821 24.9369H33.0124L30.7562 18.0175C30.3467 16.7714 29.0046 16.0934 27.7585 16.5029C27.0417 16.7385 26.4794 17.3008 26.2438 18.0175L23.9936 24.9369H16.7179C15.4062 24.9364 14.3424 25.999 14.3418 27.3107C14.3414 28.0707 14.7047 28.7848 15.3191 29.232L21.2042 33.5069L18.9563 40.4263C18.5508 41.6738 19.2334 43.0137 20.4807 43.4191C21.2041 43.6542 21.9961 43.5286 22.6114 43.0815L28.5 38.8078L34.3863 43.0827C35.2155 43.6987 36.3501 43.6987 37.1793 43.0827C38.0207 42.4847 38.371 41.4059 38.0414 40.4275L35.7935 33.5069L41.6786 29.232C42.7392 28.4602 42.9731 26.9747 42.2011 25.9142ZM33.6988 32.0938C33.2823 32.3965 33.1082 32.9331 33.2677 33.4226L35.7828 41.1626L29.1983 36.3794C28.7822 36.0774 28.219 36.0774 27.803 36.3794L21.2185 41.1626L23.7323 33.4226C23.8913 32.9334 23.7173 32.3975 23.3013 32.095L16.7179 27.3119H24.8557C25.3702 27.3119 25.826 26.9806 25.985 26.4914L28.5 18.7514L31.0151 26.4902C31.1741 26.9794 31.6299 27.3107 32.1444 27.3107L40.2821 27.3119L33.6988 32.0938Z" fill="white"/>
</svg>
