<svg width="95" height="67" viewBox="0 0 95 67" fill="none" xmlns="http://www.w3.org/2000/svg">
<path d="M46.9695 48.6745C45.9452 47.8987 44.6872 47.6423 43.5137 47.8611C43.3293 46.7492 42.7374 45.766 41.8354 45.0828C40.9007 44.3749 39.7467 44.0736 38.5851 44.2338C38.2974 44.2736 38.0179 44.3407 37.7491 44.4332C37.4944 43.5599 36.968 42.7579 36.1887 42.1676C34.905 41.1953 33.2547 41.0398 31.8634 41.6119C31.5864 40.7782 31.0661 40.0473 30.3507 39.5054C29.4162 38.7975 28.2615 38.4964 27.1004 38.6564C26.1587 38.7864 25.304 39.2076 24.6369 39.8604L20.0309 39.5542L22.854 16.6212L27.9127 16.965C27.9413 16.9669 27.9699 16.9679 27.9982 16.9679C28.4677 16.9679 28.9014 16.7055 29.1177 16.2833L31.0134 12.5842C31.4938 11.6478 32.5782 11.1718 33.5921 11.4525L36.4075 12.231C37.0768 12.4158 37.7704 12.0233 37.9558 11.3535C38.141 10.6838 37.7481 9.99048 37.0783 9.80524L34.2634 9.0269C32.1057 8.4296 29.797 9.44233 28.7744 11.4358L27.2565 14.3976L23.1622 14.1194L23.2592 13.3315C23.5693 10.8133 21.7728 8.51248 19.2546 8.20242L9.55878 7.00949C8.86786 6.92493 8.24102 7.41502 8.15612 8.1046C8.07123 8.79436 8.56165 9.42237 9.25124 9.50726L18.947 10.7009C19.4997 10.7688 19.9928 11.048 20.3354 11.4869C20.6781 11.9258 20.8294 12.472 20.7613 13.0247L17.4318 40.0712C17.2914 41.2119 16.2488 42.0251 15.108 41.8856L5.41221 40.6919C4.72162 40.6077 4.09445 41.0973 4.00955 41.7871C3.92465 42.4768 4.41508 43.1048 5.10467 43.1897L14.8005 44.3833C14.9904 44.4067 15.1792 44.4181 15.3659 44.4181C17.0655 44.4181 18.5989 43.4738 19.3933 42.0344L22.8391 42.2634C22.4272 43.0607 22.2693 43.9632 22.3945 44.8704C22.5549 46.0316 23.1579 47.0611 24.0924 47.7688C24.863 48.3526 25.7828 48.6598 26.7331 48.6598C26.9353 48.6598 27.1388 48.6458 27.3427 48.6178C27.3558 48.616 27.3685 48.6135 27.3815 48.6114C27.3831 48.6245 27.3841 48.6375 27.3858 48.6505C27.5462 49.8118 28.1492 50.8413 29.0838 51.549C29.8749 52.148 30.8051 52.4374 31.7284 52.4374C31.9448 52.4374 32.1607 52.4198 32.3745 52.3882C32.5195 53.5171 33.0985 54.5894 34.0753 55.3291C34.8664 55.9283 35.7966 56.2175 36.7199 56.2175C36.9357 56.2175 37.1509 56.2001 37.364 56.1687C37.3658 56.1826 37.3669 56.1967 37.3687 56.2106C37.5291 57.3719 38.1321 58.4014 39.0668 59.1091C39.8375 59.6926 40.7572 60 41.7074 60C41.9097 60 42.1132 59.9861 42.3169 59.9581C43.4783 59.7977 44.5077 59.1946 45.2154 58.2601L47.8184 54.8231C49.2797 52.8939 48.8989 50.1356 46.9695 48.6745ZM26.9986 46.1249C26.5035 46.1934 26.0108 46.0647 25.6122 45.7627C25.2135 45.4608 24.9563 45.0216 24.8879 44.5263C24.8194 44.0308 24.9481 43.5385 25.2501 43.1397L26.2087 41.874C26.5105 41.4753 26.9498 41.2181 27.445 41.1497C27.9405 41.0817 28.4328 41.2099 28.8316 41.5119C29.2303 41.8137 29.4875 42.253 29.5559 42.7483C29.6244 43.2436 29.4957 43.7359 29.1938 44.1347L28.2351 45.4004C27.9331 45.7991 27.494 46.0565 26.9986 46.1249ZM30.6036 49.5428C30.2049 49.241 29.9477 48.8017 29.8792 48.3064C29.8108 47.811 29.9395 47.3187 30.2415 46.9199L31.2 45.6543C31.2 45.6543 31.2002 45.6541 31.2002 45.6539L32.0466 44.5362C32.4144 44.0506 32.9747 43.7951 33.5414 43.7951C33.9352 43.7951 34.332 43.9186 34.6694 44.1741C35.4924 44.7974 35.655 45.9739 35.0317 46.797L33.2265 49.1807C32.6032 50.0037 31.4265 50.1661 30.6036 49.5428ZM35.5951 53.3229C35.1964 53.0211 34.9392 52.5818 34.8708 52.0864C34.8023 51.5913 34.9308 51.099 35.2325 50.7005C35.2327 50.7003 35.2327 50.7002 35.2328 50.7L37.038 48.3161L37.693 47.4512C37.9949 47.0526 38.4341 46.7954 38.9296 46.7269C39.4252 46.6588 39.9173 46.7871 40.3161 47.0892C41.1388 47.7121 41.3013 48.8881 40.6789 49.7111L38.218 52.9605C38.2178 52.9607 38.2177 52.9609 38.2177 52.961C37.5942 53.7837 36.4182 53.9462 35.5951 53.3229ZM45.8123 53.3038L43.2094 56.7408C42.9075 57.1395 42.4683 57.3967 41.973 57.4651C41.4772 57.5334 40.9851 57.4049 40.5864 57.1031C40.1878 56.8012 39.9306 56.362 39.8621 55.8667C39.7937 55.3712 39.9223 54.8789 40.2244 54.4801L42.6847 51.2315C42.6852 51.231 42.6856 51.2304 42.6861 51.2299L42.8275 51.0431C43.1293 50.6445 43.5686 50.3872 44.0641 50.3188C44.5595 50.2508 45.0518 50.379 45.4506 50.681C46.2731 51.304 46.4357 52.4808 45.8123 53.3038Z" fill="white"/>
<path d="M89.8955 41.7871C89.8106 41.0975 89.1833 40.6078 88.4928 40.692L78.7972 41.8856C77.6548 42.026 76.6138 41.212 76.4734 40.0712L76.3741 39.264L76.3511 39.0771L73.1441 13.0247C73.076 12.472 73.2273 11.9261 73.5699 11.487C73.9126 11.0481 74.4057 10.7689 74.9583 10.7009L84.6541 9.50732C85.3439 9.42242 85.8342 8.79441 85.7493 8.10466C85.6644 7.41507 85.037 6.92532 84.3466 7.00955L74.6508 8.20315C72.2812 8.49492 70.5514 10.5494 70.6136 12.8891L68.1685 13.1901L60.5972 8.92931C59.5251 8.32529 58.3096 8.0659 57.0823 8.17865C57.0798 8.17882 57.0773 8.17949 57.0748 8.17966L54.7958 8.39039C54.1037 8.45432 53.5946 9.06723 53.6587 9.75933C53.7226 10.4513 54.3345 10.9595 55.0277 10.8964L57.313 10.685C58.0281 10.6189 58.7368 10.7702 59.3623 11.1222L67.2123 15.5399C67.458 15.702 67.757 15.7762 68.0593 15.7391L70.8992 15.3896L72.9822 32.3093L73.7025 38.1605L69.1729 38.1642C68.8709 38.1644 68.5793 38.2733 68.3512 38.4704L68.0007 38.7432L56.6288 28.942C59.2276 28.1949 61.7049 26.3877 64.0211 23.5433C64.4599 23.0044 64.3788 22.2118 63.8399 21.7729C63.301 21.3341 62.5082 21.4152 62.0695 21.9541C59.4806 25.1336 56.7585 26.7701 53.9787 26.8181C49.9289 26.8943 46.9533 23.5363 46.9259 23.5049C46.6785 23.2187 46.3157 23.0603 45.9375 23.0695C45.5594 23.0802 45.2062 23.2608 44.9756 23.5606L41.5953 27.9598C39.8143 30.2779 36.7803 31.1417 34.0453 30.1085L33.6844 29.9721C33.3675 29.8523 33.2383 29.6046 33.1896 29.4675C33.141 29.3305 33.0846 29.0568 33.2547 28.7639L42.0774 13.5784C42.648 12.5962 43.6641 11.9474 44.7953 11.8427L50.0188 11.3596C50.7109 11.2955 51.22 10.6826 51.1559 9.9907C51.0918 9.29877 50.4789 8.78988 49.787 8.85364L44.5634 9.33669C42.623 9.51621 40.8801 10.6293 39.9011 12.3141L31.0784 27.4996C30.5818 28.3546 30.4868 29.3793 30.8182 30.311C31.1495 31.2427 31.8702 31.9772 32.795 32.3266L33.1559 32.463C34.2203 32.865 35.3171 33.0591 36.3993 33.0591C39.1598 33.0589 41.8225 31.7948 43.5909 29.4934L46.1129 26.2112C47.4644 27.376 49.9856 29.1011 53.204 29.313L69.6375 43.4765C69.9329 43.731 70.1116 44.0854 70.1405 44.4743C70.1693 44.8632 70.0452 45.2403 69.791 45.5354L69.1506 46.2782C68.346 47.21 66.9318 47.3135 65.9983 46.5094C65.9461 46.4644 65.8905 46.4258 65.8337 46.3909L61.5676 42.7124C61.0416 42.2588 60.2469 42.3175 59.7928 42.8438C59.339 43.3702 59.3979 44.1648 59.9242 44.6186L63.3909 47.6078L61.8096 49.443C61.3237 50.0066 60.5925 50.2913 59.8544 50.2046C59.4126 50.1526 58.9991 49.9699 58.6585 49.6761C58.6524 49.6709 58.6459 49.6665 58.6398 49.6615L54.676 46.2438C54.1496 45.7901 53.3552 45.8488 52.9012 46.3751C52.4473 46.9015 52.5062 47.6961 53.0326 48.1499L56.0617 50.7618L54.471 52.6093C53.9849 53.173 53.252 53.4577 52.5138 53.3708C51.8233 53.2893 51.1982 53.7836 51.1171 54.4736C51.0361 55.1639 51.5297 55.7892 52.22 55.8703C52.4064 55.8921 52.5923 55.903 52.7775 55.903C54.1517 55.903 55.4669 55.3079 56.3776 54.252L58.0783 52.277C58.5429 52.4985 59.0423 52.6433 59.5605 52.7042C61.1309 52.8888 62.6834 52.2839 63.7159 51.0863L65.4194 49.1093C67.3033 50.0029 69.6301 49.5742 71.0562 47.9221L71.6975 47.1783C72.3908 46.3735 72.7292 45.3468 72.6505 44.2876C72.5718 43.2282 72.0851 42.263 71.2807 41.5702L70.2479 40.6801L74.0231 40.6769C74.4357 42.8514 76.3493 44.4183 78.539 44.4183C78.7256 44.4183 78.9146 44.4069 79.1044 44.3836L88.8002 43.19C89.49 43.1049 89.9804 42.477 89.8955 41.7871Z" fill="white"/>
<path d="M81.8517 32.7031C79.8165 32.7031 78.1606 34.3588 78.1606 36.394C78.1606 38.4292 79.8165 40.0851 81.8517 40.0851C83.8869 40.0851 85.5426 38.4292 85.5426 36.394C85.5426 34.3588 83.8869 32.7031 81.8517 32.7031ZM81.8517 37.5683C81.2042 37.5683 80.6774 37.0415 80.6774 36.394C80.6774 35.7465 81.2042 35.2199 81.8517 35.2199C82.4992 35.2199 83.0258 35.7465 83.0258 36.394C83.0258 37.0415 82.4992 37.5683 81.8517 37.5683Z" fill="white"/>
<path d="M15.6088 36.3938C15.6088 34.3586 13.9531 32.7029 11.9179 32.7029C9.88273 32.7029 8.22705 34.3586 8.22705 36.3938C8.22705 38.429 9.88273 40.0848 11.9179 40.0848C13.9531 40.0848 15.6088 38.429 15.6088 36.3938ZM10.7438 36.3938C10.7438 35.7463 11.2705 35.2196 11.9179 35.2196C12.5654 35.2196 13.0921 35.7463 13.0921 36.3938C13.0921 37.0412 12.5654 37.5681 11.9179 37.5681C11.2705 37.5681 10.7438 37.0412 10.7438 36.3938Z" fill="white"/>
</svg>
