<svg width="67" height="67" viewBox="0 0 67 67" fill="none" xmlns="http://www.w3.org/2000/svg">
<path d="M9.27148 29.2789V21.623C9.27148 20.6453 9.80151 19.7445 10.6561 19.2697L17.3475 15.5523" stroke="white" stroke-width="2" stroke-linecap="round" stroke-linejoin="round"/>
<path d="M41.5759 55.9325L34.8053 59.6932C33.9922 60.1448 33.0035 60.1447 32.1905 59.6929L25.4238 55.9325" stroke="white" stroke-width="2" stroke-linecap="round" stroke-linejoin="round"/>
<path d="M57.7279 37.7211V45.3734C57.7279 46.3507 57.1982 47.2512 56.3441 47.7262L49.6519 51.4475" stroke="white" stroke-width="2" stroke-linecap="round" stroke-linejoin="round"/>
<path d="M25.4238 11.0674L32.1944 7.30675C33.0075 6.85509 33.9962 6.8552 34.8092 7.30703L41.5759 11.0674" stroke="white" stroke-width="2" stroke-linecap="round" stroke-linejoin="round"/>
<path d="M33.4999 6.97034V14.6559" stroke="white" stroke-width="2" stroke-linecap="round" stroke-linejoin="round"/>
<path d="M33.4999 52.3441V60.0318" stroke="white" stroke-width="2" stroke-linecap="round" stroke-linejoin="round"/>
<path d="M9.64697 20.262L16.325 23.9433" stroke="white" stroke-width="2" stroke-linecap="round" stroke-linejoin="round"/>
<path d="M50.6748 43.0566L57.3542 46.7388" stroke="white" stroke-width="2" stroke-linecap="round" stroke-linejoin="round"/>
<path d="M57.7279 29.2789V21.6265C57.7279 20.6492 57.1983 19.7487 56.3441 19.2738L49.6519 15.5523" stroke="white" stroke-width="2" stroke-linecap="round" stroke-linejoin="round"/>
<path d="M9.27148 37.7211V45.3734C9.27148 46.3507 9.80112 47.2512 10.6552 47.7262L17.3475 51.4475" stroke="white" stroke-width="2" stroke-linecap="round" stroke-linejoin="round"/>
<path d="M57.3508 20.263L50.6748 23.9433" stroke="white" stroke-width="2" stroke-linecap="round" stroke-linejoin="round"/>
<path fill-rule="evenodd" clip-rule="evenodd" d="M32.2456 44.3383L24.6627 40.0052C23.8751 39.5552 23.3892 38.7177 23.3892 37.8106V29.1894C23.3892 28.2824 23.8751 27.4448 24.6627 26.9948L32.2456 22.6617C33.0227 22.2177 33.9766 22.2177 34.7537 22.6617L42.3366 26.9948C43.1242 27.4448 43.6101 28.2824 43.6101 29.1894V37.8106C43.6101 38.7177 43.1242 39.5552 42.3366 40.0052L34.7535 44.3383C33.9765 44.7823 33.0226 44.7823 32.2456 44.3383V44.3383Z" stroke="white" stroke-width="2" stroke-linecap="round" stroke-linejoin="round"/>
<path d="M23.7363 27.9208L33.4999 33.5" stroke="white" stroke-width="2" stroke-linecap="round" stroke-linejoin="round"/>
<path d="M43.2636 27.9208L33.5 33.5" stroke="white" stroke-width="2" stroke-linecap="round" stroke-linejoin="round"/>
<path d="M33.4999 33.5V44.6675" stroke="white" stroke-width="2" stroke-linecap="round" stroke-linejoin="round"/>
<path d="M16.3249 43.0566L9.64502 46.7392" stroke="white" stroke-width="2" stroke-linecap="round" stroke-linejoin="round"/>
</svg>
