<svg width="36" height="36" viewBox="0 0 36 36" fill="none" xmlns="http://www.w3.org/2000/svg">
<path d="M21.736 3.375C23.1131 3.375 24.4381 3.87997 25.4635 4.78735L25.7135 5.02252L29.4775 8.7865C30.4512 9.76025 31.0311 11.0542 31.1145 12.4209L31.125 12.764V27C31.125 30.0064 28.7665 32.4619 25.7987 32.6172L25.5 32.625H19.5C18.8787 32.625 18.375 32.1213 18.375 31.5C18.375 30.9305 18.7982 30.4598 19.3473 30.3853L19.5 30.375H25.5C27.2863 30.375 28.7485 28.9873 28.8672 27.2311L28.875 27V12.764C28.875 11.9683 28.594 11.2016 28.0871 10.5966L27.8865 10.3775L24.1225 6.61351C23.5599 6.05091 22.8191 5.70744 22.0328 5.63806L21.736 5.625H10.5C8.7137 5.625 7.25153 7.01274 7.13279 8.76893L7.125 9V19.5C7.125 20.1213 6.62132 20.625 6 20.625C5.43046 20.625 4.95976 20.2018 4.88527 19.6527L4.875 19.5V9C4.875 5.99361 7.23354 3.53809 10.2013 3.3828L10.5 3.375H21.736Z" fill="#4CAD3B"/>
<path d="M21.75 3.375C22.3195 3.375 22.7902 3.79823 22.8647 4.34734L22.875 4.5V9.75C22.875 10.7208 23.6128 11.5193 24.5583 11.6153L24.75 11.625H30C30.6213 11.625 31.125 12.1287 31.125 12.75C31.125 13.3195 30.7018 13.7902 30.1527 13.8647L30 13.875H24.75C22.5562 13.875 20.7624 12.1624 20.6325 10.0013L20.625 9.75V4.5C20.625 3.87868 21.1287 3.375 21.75 3.375Z" fill="#4CAD3B"/>
<path d="M10.5 32.625C11.0695 32.625 11.5402 32.2018 11.6147 31.6527L11.625 31.5V24C11.625 23.3787 11.1213 22.875 10.5 22.875C9.93046 22.875 9.45976 23.2982 9.38527 23.8473L9.375 24V31.5C9.375 32.1213 9.87868 32.625 10.5 32.625Z" fill="#4CAD3B"/>
<path d="M12.7045 27.7955C13.1438 28.2348 13.8562 28.2348 14.2955 27.7955C14.6949 27.3961 14.7312 26.7711 14.4044 26.3307L14.2955 26.2045L11.2955 23.2045C10.8562 22.7652 10.1438 22.7652 9.7045 23.2045C9.30511 23.6039 9.2688 24.2289 9.59558 24.6693L9.7045 24.7955L12.7045 27.7955Z" fill="#4CAD3B"/>
<path d="M6.7045 27.7955C7.1039 28.1949 7.7289 28.2312 8.16932 27.9044L8.2955 27.7955L11.2955 24.7955C11.7348 24.3562 11.7348 23.6438 11.2955 23.2045C10.8961 22.8051 10.2711 22.7688 9.83068 23.0956L9.7045 23.2045L6.7045 26.2045C6.26517 26.6438 6.26517 27.3562 6.7045 27.7955Z" fill="#4CAD3B"/>
</svg>
