<svg width="144" height="36" viewBox="0 0 144 36" fill="none" xmlns="http://www.w3.org/2000/svg">
<path d="M68.8473 18.934H64.6412L62.3822 15.9521H51.7273L49.4679 18.9497L45.2622 18.934L54.1254 7.17228C54.8425 6.24046 55.8002 5.45898 57.0665 5.45898C58.3093 5.45898 59.2936 6.24421 59.9864 7.17603L68.8473 18.934ZM60.1228 12.9543L57.0629 8.8716L53.9862 12.9543H60.1228Z" fill="#4D5556"/>
<path d="M88.165 18.9346H77.1188C74.8459 18.9346 72.9985 17.0882 72.9985 14.8149V5.95898H76.3648V15.9527H88.165V18.9346Z" fill="#4D5556"/>
<path d="M143.981 10.9563C143.981 13.2292 141.985 14.9531 139.711 14.9531H128.815V18.9504H125.446V5.95898H139.819C142.093 5.95898 143.981 7.71169 143.981 9.9851V10.9563ZM140.613 8.95766H128.815V11.9554H140.613V8.95766Z" fill="#4D5556"/>
<path d="M75.6779 24.7609C76.0339 24.9266 76.3244 25.1623 76.5494 25.4667C76.7741 25.7721 76.9049 26.128 76.9425 26.535H75.7383C75.6631 26.2194 75.5198 25.979 75.3086 25.8162C75.0975 25.6533 74.8362 25.5721 74.5257 25.5721C74.1888 25.5721 73.9039 25.656 73.6709 25.8245C73.438 25.9929 73.263 26.226 73.1452 26.5225C73.0273 26.8198 72.9684 27.1577 72.9684 27.5378C72.9684 27.8909 73.0236 28.2129 73.1331 28.5015C73.2431 28.7907 73.4139 29.0213 73.6468 29.1953C73.8798 29.3694 74.1725 29.4566 74.5257 29.4566C74.9327 29.4566 75.2524 29.3531 75.4853 29.1476C75.7179 28.9415 75.8534 28.632 75.8909 28.2209H74.6222V27.2811H77.0307V30.3796H76.2278L76.0993 29.7295C75.896 29.9921 75.6603 30.1889 75.3925 30.3197C75.1253 30.4502 74.8362 30.5165 74.5257 30.5165C73.9587 30.5165 73.4607 30.3851 73.0324 30.1225C72.6041 29.8603 72.2765 29.5034 72.0491 29.0514C71.8218 28.5986 71.708 28.0946 71.708 27.5378C71.708 26.9651 71.8203 26.4505 72.0449 25.9929C72.27 25.5359 72.5953 25.1739 73.0208 24.9094C73.4459 24.6439 73.9479 24.5117 74.5257 24.5117C74.9383 24.5117 75.3221 24.5952 75.6779 24.7609Z" fill="#4D5556"/>
<path d="M86.282 24.8568C86.5363 24.9965 86.7325 25.1853 86.8713 25.4262C87.011 25.6675 87.0805 25.9348 87.0805 26.229C87.0805 26.9469 86.7779 27.4252 86.1733 27.6661V27.6824C86.4198 27.752 86.6026 27.8782 86.7232 28.0592C86.8438 28.2415 86.9209 28.4299 86.9562 28.6253C86.9905 28.8212 87.0137 29.0546 87.0239 29.3279C87.0347 29.6059 87.0574 29.8267 87.0926 29.9901C87.1274 30.1539 87.1794 30.2834 87.2494 30.3794H85.9887C85.9455 30.2726 85.9139 30.1427 85.8921 29.9901C85.8713 29.8374 85.8495 29.6356 85.8281 29.3836C85.8063 29.0847 85.7677 28.8476 85.712 28.6736C85.6554 28.4996 85.5603 28.3673 85.4267 28.2764C85.2926 28.1854 85.0972 28.1399 84.8406 28.1399H83.5724V30.3794H82.3115V24.6484H85.4026C85.7344 24.6484 86.0271 24.7181 86.282 24.8568ZM85.5993 27.048C85.7465 26.9194 85.8207 26.7111 85.8207 26.422C85.8207 26.1445 85.7465 25.9422 85.5993 25.816C85.4522 25.6903 85.2365 25.6276 84.9529 25.6276H83.5724V27.2411H84.9612C85.2392 27.2411 85.4522 27.1766 85.5993 27.048Z" fill="#4D5556"/>
<path d="M96.4265 24.9048C96.852 25.1674 97.1801 25.5275 97.4102 25.9846C97.6404 26.4422 97.755 26.9605 97.755 27.5378C97.755 28.0951 97.6418 28.5996 97.4144 29.051C97.1866 29.504 96.8585 29.8603 96.4306 30.1234C96.0023 30.3851 95.5044 30.5165 94.9373 30.5165C94.3702 30.5165 93.8724 30.3851 93.444 30.1234C93.0162 29.8603 92.6881 29.504 92.4607 29.051C92.2329 28.5996 92.1191 28.0951 92.1191 27.5378C92.1191 26.9651 92.2329 26.4505 92.4607 25.9929C92.6881 25.5359 93.0144 25.1739 93.4399 24.9094C93.8659 24.6439 94.3651 24.5117 94.9373 24.5117C95.5044 24.5117 96.0014 24.6435 96.4265 24.9048ZM93.5526 28.5169C93.6673 28.806 93.8427 29.0353 94.0784 29.2037C94.3141 29.3722 94.5999 29.4566 94.9373 29.4566C95.2803 29.4566 95.5679 29.3712 95.8005 29.2C96.0334 29.0287 96.2074 28.7986 96.3225 28.5095C96.4371 28.2209 96.4952 27.8965 96.4952 27.5378C96.4952 27.1577 96.4371 26.8208 96.3225 26.5261C96.2074 26.2324 96.0334 25.9995 95.8005 25.8282C95.5679 25.6566 95.277 25.5716 94.9294 25.5716C94.5925 25.5716 94.3072 25.6566 94.0746 25.8282C93.8417 25.9995 93.6673 26.2324 93.5526 26.5261C93.4376 26.8208 93.38 27.1577 93.38 27.5378C93.38 27.902 93.4376 28.2287 93.5526 28.5169Z" fill="#4D5556"/>
<path d="M104.112 28.1675C104.112 28.5899 104.207 28.8999 104.397 29.0948C104.587 29.2901 104.885 29.3881 105.292 29.3881C105.586 29.3881 105.819 29.3453 105.99 29.2595C106.162 29.1741 106.286 29.0433 106.364 28.8664C106.441 28.6896 106.48 28.4567 106.48 28.1675V24.5801H107.741V28.1675C107.741 28.6441 107.648 29.0535 107.463 29.3959C107.279 29.7384 107.005 29.9996 106.641 30.1787C106.277 30.3574 105.827 30.4474 105.292 30.4474C104.478 30.4474 103.868 30.2497 103.461 29.8535C103.055 29.4576 102.851 28.8952 102.851 28.1675V24.5801H104.112V28.1675Z" fill="#4D5556"/>
<path d="M116.77 24.8893C117.065 25.0499 117.285 25.2688 117.433 25.5468C117.58 25.8253 117.654 26.1389 117.654 26.4865C117.654 26.8397 117.58 27.1538 117.433 27.4299C117.285 27.7051 117.065 27.9232 116.77 28.0838C116.476 28.2438 116.115 28.3246 115.686 28.3246H114.346V30.3794H113.085V24.6484H115.679C116.112 24.6484 116.476 24.7283 116.77 24.8893ZM116.169 27.1408C116.345 27.0039 116.434 26.7863 116.434 26.4865C116.434 26.1923 116.346 25.9756 116.172 25.8359C115.998 25.6971 115.727 25.6276 115.357 25.6276H114.346V27.3455H115.349C115.719 27.3455 115.991 27.2763 116.169 27.1408Z" fill="#4D5556"/>
<path d="M144 27.5587H122.251V27.29H144V27.5587ZM67.1103 27.5587H45.3613V27.29H67.1103V27.5587Z" fill="#4D5556"/>
<path d="M106.972 18.9346H95.926C93.6526 18.9346 91.8052 17.0882 91.8052 14.8149V5.95898H95.1714V15.9527H106.972V18.9346Z" fill="#4D5556"/>
<path d="M121.37 13.9429H110.328V10.9512H121.37V13.9429Z" fill="#4CAD3B"/>
<path d="M0 0V35.976H11.9923V11.9919H22.9846V0H0Z" fill="#4D5556"/>
<path d="M23.9849 0V23.9837H12.9922V35.976H35.9768V0H23.9849Z" fill="#4D5556"/>
<path d="M22.9854 12.9912H12.9922V22.9845H22.9854V12.9912Z" fill="#4CAD3B"/>
</svg>
