<svg width="200" height="50" viewBox="0 0 200 50" fill="none" xmlns="http://www.w3.org/2000/svg">
<path d="M95.6213 26.2973H89.7795L86.642 22.1557H71.8436L68.7055 26.3191L62.8643 26.2973L75.1743 9.96161C76.1701 8.66741 77.5004 7.58203 79.2592 7.58203C80.9852 7.58203 82.3522 8.67262 83.3145 9.96682L95.6213 26.2973ZM83.5039 17.9922L79.2541 12.3218L74.9809 17.9922H83.5039Z" fill="white"/>
<path d="M122.452 26.2971H107.11C103.953 26.2971 101.387 23.7326 101.387 20.5752V8.27539H106.063V22.1556H122.452V26.2971Z" fill="white"/>
<path d="M199.973 15.2161C199.973 18.3729 197.201 20.7673 194.043 20.7673H178.909V26.319H174.23V8.27539H194.193C197.351 8.27539 199.973 10.7097 199.973 13.8672V15.2161ZM195.295 12.4402H178.909V16.6037H195.295V12.4402Z" fill="white"/>
<path d="M105.108 34.391C105.603 34.6211 106.006 34.9486 106.319 35.3713C106.631 35.7954 106.813 36.2898 106.865 36.855H105.192C105.088 36.4167 104.889 36.0829 104.596 35.8567C104.302 35.6305 103.939 35.5177 103.508 35.5177C103.04 35.5177 102.645 35.6342 102.321 35.8683C101.997 36.1021 101.754 36.4258 101.591 36.8376C101.427 37.2507 101.345 37.7198 101.345 38.2478C101.345 38.7382 101.422 39.1855 101.574 39.5863C101.727 39.9879 101.964 40.3082 102.288 40.5499C102.611 40.7916 103.018 40.9128 103.508 40.9128C104.074 40.9128 104.518 40.769 104.841 40.4836C105.164 40.1975 105.352 39.7675 105.404 39.1965H103.642V37.8913H106.987V42.1947H105.872L105.694 41.2918C105.411 41.6566 105.084 41.9299 104.712 42.1116C104.341 42.2928 103.939 42.3849 103.508 42.3849C102.721 42.3849 102.029 42.2024 101.434 41.8376C100.839 41.4736 100.384 40.9779 100.068 40.3501C99.7527 39.7212 99.5947 39.0211 99.5947 38.2478C99.5947 37.4524 99.7507 36.7377 100.063 36.1021C100.375 35.4674 100.827 34.9646 101.418 34.5972C102.008 34.2285 102.706 34.0449 103.508 34.0449C104.081 34.0449 104.614 34.1609 105.108 34.391Z" fill="white"/>
<path d="M119.836 34.5237C120.189 34.7178 120.462 34.98 120.654 35.3145C120.848 35.6498 120.945 36.0209 120.945 36.4296C120.945 37.4266 120.525 38.091 119.685 38.4256V38.4482C120.027 38.5449 120.281 38.7201 120.449 38.9715C120.616 39.2248 120.723 39.4865 120.772 39.7578C120.82 40.0298 120.852 40.354 120.866 40.7336C120.881 41.1197 120.913 41.4264 120.962 41.6533C121.01 41.8808 121.082 42.0607 121.179 42.194H119.428C119.368 42.0458 119.325 41.8653 119.294 41.6533C119.265 41.4413 119.235 41.1609 119.205 40.8109C119.175 40.3959 119.122 40.0666 119.044 39.8249C118.966 39.5832 118.834 39.3994 118.648 39.2732C118.462 39.1469 118.19 39.0836 117.834 39.0836H116.073V42.194H114.321V34.2344H118.614C119.075 34.2344 119.482 34.3311 119.836 34.5237ZM118.888 37.5671C119.092 37.3886 119.195 37.0992 119.195 36.6976C119.195 36.3123 119.092 36.0312 118.888 35.856C118.683 35.6813 118.384 35.5943 117.99 35.5943H116.073V37.8353H118.001C118.387 37.8353 118.683 37.7457 118.888 37.5671Z" fill="white"/>
<path d="M133.926 34.5909C134.517 34.9557 134.972 35.4557 135.292 36.0906C135.612 36.7261 135.771 37.446 135.771 38.2478C135.771 39.0219 135.614 39.7225 135.298 40.3495C134.981 40.9786 134.526 41.4736 133.932 41.8389C133.337 42.2024 132.645 42.3849 131.858 42.3849C131.07 42.3849 130.378 42.2024 129.784 41.8389C129.189 41.4736 128.734 40.9786 128.418 40.3495C128.101 39.7225 127.943 39.0219 127.943 38.2478C127.943 37.4524 128.101 36.7377 128.418 36.1021C128.734 35.4674 129.187 34.9646 129.778 34.5972C130.369 34.2285 131.063 34.0449 131.858 34.0449C132.645 34.0449 133.335 34.228 133.926 34.5909ZM129.934 39.6076C130.094 40.0092 130.337 40.3276 130.665 40.5615C130.992 40.7955 131.389 40.9128 131.858 40.9128C132.334 40.9128 132.733 40.7942 133.056 40.5564C133.38 40.3185 133.621 39.9989 133.781 39.5974C133.941 39.1965 134.021 38.746 134.021 38.2478C134.021 37.7198 133.941 37.252 133.781 36.8427C133.621 36.4348 133.38 36.1113 133.056 35.8733C132.733 35.635 132.329 35.5169 131.847 35.5169C131.379 35.5169 130.982 35.635 130.659 35.8733C130.336 36.1113 130.094 36.4348 129.934 36.8427C129.775 37.252 129.695 37.7198 129.695 38.2478C129.695 38.7537 129.775 39.2074 129.934 39.6076Z" fill="white"/>
<path d="M144.6 39.1213C144.6 39.7079 144.731 40.1384 144.995 40.4091C145.259 40.6803 145.674 40.8165 146.239 40.8165C146.647 40.8165 146.971 40.7571 147.209 40.6379C147.447 40.5193 147.619 40.3375 147.728 40.0919C147.835 39.8463 147.889 39.5228 147.889 39.1213V34.1387H149.64V39.1213C149.64 39.7832 149.511 40.3517 149.254 40.8273C148.999 41.303 148.618 41.6658 148.112 41.9146C147.606 42.1628 146.982 42.2878 146.239 42.2878C145.108 42.2878 144.261 42.0132 143.696 41.4629C143.132 40.913 142.849 40.1319 142.849 39.1213V34.1387H144.6V39.1213Z" fill="white"/>
<path d="M162.181 34.5689C162.59 34.7919 162.896 35.096 163.101 35.4821C163.305 35.8689 163.408 36.3045 163.408 36.7873C163.408 37.2778 163.305 37.7141 163.101 38.0976C162.896 38.4797 162.59 38.7827 162.181 39.0057C161.772 39.228 161.27 39.3402 160.675 39.3402H158.814V42.194H157.063V34.2344H160.664C161.267 34.2344 161.772 34.3453 162.181 34.5689ZM161.345 37.696C161.59 37.5059 161.713 37.2036 161.713 36.7873C161.713 36.3786 161.592 36.0777 161.35 35.8837C161.109 35.6909 160.732 35.5943 160.218 35.5943H158.814V37.9803H160.207C160.721 37.9803 161.099 37.8842 161.345 37.696Z" fill="white"/>
<path d="M200 38.2755H169.793V37.9023H200V38.2755ZM93.2088 38.2755H63.002V37.9023H93.2088V38.2755Z" fill="white"/>
<path d="M148.572 26.2971H133.23C130.073 26.2971 127.507 23.7326 127.507 20.5752V8.27539H132.182V22.1556H148.572V26.2971Z" fill="white"/>
<path d="M168.568 19.3641H153.232V15.209H168.568V19.3641Z" fill="white"/>
<path d="M0 0V49.9667H16.656V16.6554H31.9231V0H0Z" fill="white"/>
<path d="M33.3126 0V33.3107H18.0449V49.9667H49.968V0H33.3126Z" fill="white"/>
<path d="M31.9244 18.0447H18.0449V31.9242H31.9244V18.0447Z" fill="#4CAD3B"/>
</svg>
