<svg width="19" height="19" viewBox="0 0 19 19" fill="none" xmlns="http://www.w3.org/2000/svg">
<path d="M16.4023 16.4023L14.7139 14.7139C15.32 14.0583 15.79 13.279 16.124 12.376C16.458 11.473 16.625 10.5143 16.625 9.5C16.625 8.48568 16.458 7.52702 16.124 6.62402C15.79 5.72103 15.32 4.94173 14.7139 4.28613L16.4023 2.59766C17.2188 3.48828 17.8558 4.52734 18.3135 5.71484C18.7712 6.90234 19 8.16406 19 9.5C19 10.8359 18.7712 12.0977 18.3135 13.2852C17.8558 14.4727 17.2188 15.5117 16.4023 16.4023ZM13.8789 13.8789L12.209 12.209C12.778 11.4915 13.0625 10.5885 13.0625 9.5C13.0625 8.41146 12.778 7.50846 12.209 6.79102L13.8789 5.12109C14.3737 5.67773 14.7572 6.33333 15.0293 7.08789C15.3014 7.84245 15.4375 8.64648 15.4375 9.5C15.4375 10.3535 15.3014 11.1576 15.0293 11.9121C14.7572 12.6667 14.3737 13.3223 13.8789 13.8789ZM8.3125 19H7.125C6.13542 19 5.21077 18.7804 4.35107 18.3413C3.49137 17.9022 2.73682 17.2837 2.0874 16.4858C1.43799 15.688 0.927734 14.686 0.556641 13.48C0.185547 12.2739 0 10.9473 0 9.5C0 8.05273 0.185547 6.72607 0.556641 5.52002C0.927734 4.31396 1.43799 3.31201 2.0874 2.51416C2.73682 1.71631 3.49137 1.09782 4.35107 0.658691C5.21077 0.219564 6.13542 0 7.125 0H8.3125C8.64648 0 8.9279 0.114421 9.15674 0.343262C9.38558 0.572103 9.5 0.853516 9.5 1.1875V4.75C9.5 5.07161 9.38558 5.34994 9.15674 5.58496C8.9279 5.81999 8.64648 5.9375 8.3125 5.9375H7.125C6.82812 5.9375 6.56836 5.84163 6.3457 5.6499C6.12305 5.45817 5.99316 5.21387 5.95605 4.91699C4.36035 5.41178 3.5625 6.93945 3.5625 9.5C3.5625 12.0605 4.36035 13.5882 5.95605 14.083C5.99316 13.7861 6.12305 13.5418 6.3457 13.3501C6.56836 13.1584 6.82812 13.0625 7.125 13.0625H8.3125C8.63411 13.0625 8.91243 13.1769 9.14746 13.4058C9.38249 13.6346 9.5 13.916 9.5 14.25V17.8125C9.5 18.1341 9.38249 18.4124 9.14746 18.6475C8.91243 18.8825 8.63411 19 8.3125 19Z" fill="#4CAD3B"/>
</svg>
