<svg width="90" height="90" viewBox="0 0 90 90" fill="none" xmlns="http://www.w3.org/2000/svg">
<rect width="90" height="90" fill="#4CAD3B"/>
<path d="M32.3887 54.2462H35.7588C35.2499 55.1665 34.9593 56.2219 34.9593 57.3439C34.9593 57.4915 34.9717 57.636 34.9816 57.7812H33.1657C33.1756 57.636 33.188 57.4915 33.188 57.3439C33.188 56.2219 32.8975 55.1665 32.3887 54.2462ZM20.1962 57.7812H18.3582C17.5215 57.7812 16.8433 57.1079 16.8433 56.2774V55.7502C16.8433 54.9196 17.5215 54.2462 18.3582 54.2462H20.9734C20.4645 55.1665 20.1739 56.2219 20.1739 57.3439C20.1739 57.4915 20.1863 57.636 20.1962 57.7812ZM47.174 54.2462H53.7699V36.8741C53.7699 36.2047 54.3165 35.6621 54.9907 35.6621H66.6276C67.1547 35.6621 67.6218 35.9993 67.7842 36.4971L70.7482 45.5795C70.7877 45.7005 70.8078 45.8269 70.8078 45.9542V54.2462H71.4226C72.2593 54.2462 72.9375 54.9196 72.9375 55.7502V56.2774C72.9375 57.1079 72.2593 57.7812 71.4226 57.7812H69.0017C69.0116 57.636 69.024 57.4915 69.024 57.3439C69.024 53.7818 66.1045 50.8844 62.5164 50.8844C58.9283 50.8844 56.0093 53.7818 56.0093 57.3439C56.0093 57.4915 56.0217 57.636 56.0316 57.7812H47.9511C47.961 57.636 47.9734 57.4915 47.9734 57.3439C47.9734 56.2219 47.6829 55.1665 47.174 54.2462ZM57.6529 45.039C57.6529 45.2153 57.7841 45.3582 57.9459 45.3582H67.0871C67.2924 45.3582 67.434 45.1344 67.361 44.9255L65.1019 38.4573C65.0587 38.3335 64.9497 38.2516 64.828 38.2516H57.9459C57.7841 38.2516 57.6529 38.3945 57.6529 38.5708V45.039Z" fill="white"/>
<path d="M57.558 57.3443C57.558 54.6352 59.7824 52.4317 62.5165 52.4317C65.2512 52.4317 67.4756 54.6352 67.4756 57.3443C67.4756 60.0533 65.2512 62.2578 62.5165 62.2578C59.7824 62.2578 57.558 60.0533 57.558 57.3443ZM62.5167 59.2721C63.5892 59.2721 64.4617 58.4071 64.4617 57.345C64.4617 56.2829 63.5892 55.4177 62.5167 55.4177C61.4443 55.4177 60.5718 56.2829 60.5718 57.345C60.5718 58.4071 61.4443 59.2721 62.5167 59.2721ZM36.5519 57.3443C36.5519 54.6352 38.7571 52.4317 41.467 52.4317C44.1764 52.4317 46.3811 54.6352 46.3811 57.3443C46.3811 60.0533 44.1764 62.2578 41.467 62.2578C38.7571 62.2578 36.5519 60.0533 36.5519 57.3443ZM40.8729 59.1786C41.8842 59.5057 42.9734 58.9487 43.3004 57.9381C43.6274 56.9277 43.071 55.8384 42.0597 55.5113C41.0484 55.1842 39.9592 55.7412 39.6321 56.7518C39.3051 57.7623 39.8616 58.8515 40.8729 59.1786ZM26.6816 52.4317C29.3907 52.4317 31.5942 54.6352 31.5942 57.3443C31.5942 60.0533 29.3907 62.2578 26.6816 62.2578C23.9725 62.2578 21.768 60.0533 21.768 57.3443C21.768 54.6352 23.9725 52.4317 26.6816 52.4317ZM26.6814 59.2721C27.7439 59.2721 28.6084 58.4071 28.6084 57.345C28.6084 56.2829 27.7439 55.4177 26.6814 55.4177C25.6188 55.4177 24.7542 56.2829 24.7542 57.345C24.7542 58.4071 25.6188 59.2721 26.6814 59.2721ZM16.2126 35.1281L18.3288 29.9769C18.6361 29.2266 19.3614 28.7422 20.176 28.7422H34.0586C34.2838 28.7422 34.507 28.7805 34.7251 28.856L42.1802 31.4835C42.5043 31.5973 42.7949 31.7936 43.0196 32.0504L48.2632 38.0315C48.7598 38.5985 48.8922 39.383 48.6086 40.0799L48.174 41.1494H50.18C50.8871 41.1494 51.4622 41.7204 51.4622 42.4224V50.8204H49.3847V43.2119H47.3359L45.6933 47.2541L47.206 50.8204H44.9526L44.0569 48.7086C44.0497 48.7098 44.0433 48.7135 44.0361 48.7146L35.2445 50.0027C35.1481 50.0168 35.0507 50.0238 34.9543 50.0238C34.6825 50.0238 34.4126 49.9684 34.1651 49.8607L27.5411 47.0219L26.0799 50.8204H23.8555L25.7194 45.9751L16.6762 37.3094C16.0838 36.7424 15.9012 35.8864 16.2126 35.1281Z" fill="white"/>
</svg>
