<svg width="90" height="90" viewBox="0 0 90 90" fill="none" xmlns="http://www.w3.org/2000/svg">
<rect width="90" height="90" fill="#4CAD3B"/>
<path d="M22.795 64.446H22.0637V65.9091H68.8819V64.446H68.1507H22.795ZM22.795 27.8692H24.9894H26.4525H60.103V19.8222V19.0909H61.5662V19.8222V28.2748L61.9282 28.6004L68.15 34.2002L68.9365 34.908L68.15 35.7816L67.9583 35.9955L60.5541 29.3323H60.103H26.4525H24.9894H22.795H22.0637V27.8692H22.795ZM31.5732 53.9017V57.1309C30.3629 57.1309 29.3788 58.115 29.3788 59.3253V61.5197H65.9556V59.3253C65.9556 58.115 64.9715 57.1309 63.7612 57.1309V53.9017L62.4242 52.564C61.5941 51.7346 60.4917 51.2783 59.3198 51.2783H36.0147C34.8434 51.2783 33.741 51.7346 32.9109 52.5633L31.5732 53.9017ZM31.5732 58.594H37.4258H57.9086H63.7606C64.1649 58.594 64.4925 58.9223 64.4925 59.3253V60.0565H30.842V59.3253C30.842 58.9223 31.1696 58.594 31.5732 58.594ZM37.4258 54.2046H57.9086V57.1309H37.4258V54.2046ZM33.0364 54.5075L33.9451 53.5981C34.4982 53.0456 35.2334 52.7414 36.0147 52.7414H59.3198C60.1011 52.7414 60.8362 53.0456 61.3894 53.5988L62.2981 54.5075V57.1309H59.3718V54.2046H35.962V57.1309H33.0357L33.0364 54.5075ZM54.2511 32.258C52.7879 32.258 54.2511 32.258 52.7879 32.258V30.7948H54.2511V32.258ZM60.103 34.453H61.5662V35.9162C60.103 35.9162 61.5662 35.9162 60.103 35.9162V34.453ZM26.4525 35.1843V36.6474C24.9894 36.6474 26.4525 36.6474 24.9894 36.6474V35.1843H26.4525ZM29.3788 30.7955V32.2586C27.9157 32.2586 29.3788 32.2586 27.9157 32.2586V30.7955H29.3788ZM36.6939 34.453V35.9162C35.2308 35.9162 36.6939 35.9162 35.2308 35.9162V34.453H36.6939ZM44.0097 32.9899V34.453C42.5465 34.453 44.0097 34.453 42.5465 34.453V32.9899H44.0097ZM68.8819 40.305V41.7681C68.1507 41.7681 68.1507 41.7681 68.1507 41.7681C68.1507 41.7681 68.1507 41.7681 67.4194 41.7681V40.305H68.1507H68.8819ZM66.6875 46.1576C65.2244 46.1576 66.6875 46.1576 65.2244 46.1576V44.6944H66.6875V46.1576ZM52.7879 37.3787C51.3248 37.3787 52.7879 37.3787 51.3248 37.3787V35.9155H52.7879V37.3787ZM57.1774 42.5V43.9632C55.7149 43.9632 57.1774 43.9632 55.7149 43.9632V42.5H57.1774ZM68.15 55.6677C66.6875 55.6677 68.15 55.6677 66.6875 55.6677V54.2046H68.15V55.6677ZM23.5262 54.9365V56.3996C22.795 56.3996 22.795 56.3996 22.795 56.3996C22.795 56.3996 22.795 56.3996 22.0637 56.3996V54.9365H22.795H23.5262ZM26.4525 60.7884V62.2516C24.9894 62.2516 26.4525 62.2516 24.9894 62.2516V60.7884H26.4525ZM30.0821 53.2718L30.2823 53.9738L28.8796 54.3762L28.6755 53.6761C28.6209 53.4883 27.2865 49.0839 22.7943 49.0839H22.0631V47.6207H22.7943C28.4025 47.6207 30.0659 53.2153 30.0821 53.2718ZM59.7241 48.443L60.3656 48.7953L59.6604 50.0771L59.0195 49.7248C58.9818 49.7046 57.984 49.1651 56.1575 48.3767C51.3111 46.285 40.6186 42.4363 26.4733 41.8461C25.2708 41.7961 24.0449 41.7681 22.7943 41.7681H22.0631V40.305H22.7943C44.6759 40.305 59.5759 48.3617 59.7241 48.443Z" fill="white"/>
<path d="M33.0364 54.5075L33.9451 53.5981C34.4982 53.0456 35.2334 52.7414 36.0147 52.7414H59.3198C60.1011 52.7414 60.8362 53.0456 61.3894 53.5988L62.2981 54.5075V57.1309H59.3718V54.2046H35.962V57.1309H33.0357L33.0364 54.5075Z" fill="white"/>
<path d="M31.5732 58.594H37.4258H57.9086H63.7606C64.1649 58.594 64.4925 58.9223 64.4925 59.3253V60.0565H30.842V59.3253C30.842 58.9223 31.1696 58.594 31.5732 58.594Z" fill="white"/>
</svg>
