<svg width="90" height="90" viewBox="0 0 90 90" fill="none" xmlns="http://www.w3.org/2000/svg">
<rect width="90" height="90" fill="#4CAD3B"/>
<rect x="26.6362" y="44.5" width="37.0909" height="15.0682" fill="white"/>
<rect x="38.2275" y="51.4541" width="13.9091" height="2.31818" fill="#D9D9D9"/>
<rect x="43" y="53" width="4" height="20" fill="white"/>
<rect x="22" y="29.4318" width="1.15909" height="4.63636" fill="white"/>
<rect x="24.3184" y="27.1133" width="1.15909" height="12.75" fill="white"/>
<rect x="63.7275" y="27.1133" width="1.15909" height="12.75" fill="white"/>
<rect x="26.6362" y="24.7959" width="1.15909" height="18.5455" fill="white"/>
<rect x="61.4092" y="24.7959" width="1.15909" height="18.5455" fill="white"/>
<rect x="28.9546" y="23.6367" width="1.15909" height="19.7045" fill="white"/>
<rect x="31.2725" y="22.4775" width="1.15909" height="20.8636" fill="white"/>
<rect x="59.0908" y="22.4775" width="1.15909" height="20.8636" fill="white"/>
<rect x="33.5908" y="21.3182" width="1.15909" height="22.0227" fill="white"/>
<rect x="35.9092" y="20.1591" width="1.15909" height="23.1818" fill="white"/>
<rect x="38.2271" y="19" width="1.15909" height="24.3409" fill="white"/>
<rect x="40.5454" y="19" width="1.15909" height="24.3409" fill="white"/>
<rect x="42.8638" y="19" width="1.15909" height="24.3409" fill="white"/>
<rect x="45.1816" y="19" width="1.15909" height="24.3409" fill="white"/>
<rect x="47.5" y="19" width="1.15909" height="24.3409" fill="white"/>
<rect x="49.8184" y="19" width="1.15909" height="24.3409" fill="white"/>
<rect x="52.1362" y="19" width="1.15909" height="24.3409" fill="white"/>
<rect x="54.4546" y="19" width="1.15909" height="24.3409" fill="white"/>
<rect x="56.7729" y="20.1591" width="1.15909" height="23.1818" fill="white"/>
<rect x="66.0454" y="29.4318" width="1.15909" height="4.63636" fill="white"/>
</svg>
