<svg width="90" height="90" viewBox="0 0 90 90" fill="none" xmlns="http://www.w3.org/2000/svg">
<rect width="90" height="90" fill="#4CAD3B"/>
<path fill-rule="evenodd" clip-rule="evenodd" d="M51.3989 64C51.3983 64 51.3996 64 51.3989 64H49.7501C49.2612 62.7903 47.9165 61.9195 46.3375 61.9195H24V61.4999C24 60.1215 25.3112 59 26.9229 59H51.3967C51.6023 59 51.7936 59.0898 51.9038 59.2381C52.0143 59.3865 52.0282 59.5727 51.9411 59.732C51.6372 60.2872 51.4831 60.8822 51.4831 61.4998C51.4831 62.1048 51.631 62.6877 51.9227 63.2332C51.972 63.3079 52 63.394 52 63.4858C52 63.7697 51.731 64 51.3989 64Z" fill="white"/>
<path fill-rule="evenodd" clip-rule="evenodd" d="M55.9763 67.6228C52.6547 67.6228 49.9524 65.0158 49.9524 61.8114C49.9524 58.6069 52.6547 56 55.9763 56C59.2978 56 62 58.6069 62 61.8114C62 65.0159 59.2977 67.6228 55.9763 67.6228ZM55.9763 64.6975C54.3266 64.6975 52.9847 63.4027 52.9847 61.8113C52.9847 60.2199 54.3266 58.9251 55.9763 58.9251C57.6259 58.9251 58.9679 60.2199 58.9679 61.8113C58.9679 63.4027 57.6259 64.6975 55.9763 64.6975ZM55.9763 60.0733C54.9829 60.0733 54.1747 60.8529 54.1747 61.8114C54.1747 62.7698 54.9829 63.5494 55.9763 63.5494C56.9697 63.5494 57.7777 62.7698 57.7777 61.8114C57.7777 60.8529 56.9696 60.0733 55.9763 60.0733ZM46.0483 68H23.3556C22.0568 68 21 66.9806 21 65.7275C21 64.4744 22.0568 63.4549 23.3556 63.4549H46.0483C47.3472 63.4549 48.4038 64.4743 48.4038 65.7274C48.4038 66.9805 47.3472 68 46.0483 68Z" fill="white"/>
<path fill-rule="evenodd" clip-rule="evenodd" d="M27 58V54.4407C27 54.1087 27.2581 53.8395 27.5764 53.8395H50.309V51.6744C50.309 51.3424 50.5671 51.0733 50.8854 51.0733H59.0044C59.3226 51.0733 59.5808 51.3424 59.5808 51.6744V56.2516C58.4184 55.3603 56.9843 54.833 55.4338 54.833C53.0434 54.833 50.9293 56.0859 49.6623 57.9948H27.1977C27.1314 57.9948 27.0655 57.9966 27 58ZM53.6948 49.8431L56.3455 31.6002L61.7163 32.6606L59.2176 49.8567C59.1477 49.8478 59.0765 49.8431 59.0043 49.8431L53.6948 49.8431ZM63.0508 31.65C62.9774 31.65 62.9039 31.6427 62.8317 31.6286L55.4561 30.1723C55.1466 30.1112 54.8781 29.9275 54.7 29.6553C54.522 29.3828 54.4562 29.0549 54.5149 28.7322L56.2814 19.003C56.3871 18.4219 56.8756 18 57.4431 18C57.5164 18 57.5902 18.0073 57.6624 18.0214L65.0379 19.4777C65.3473 19.5387 65.616 19.7224 65.794 19.9949C65.9721 20.2672 66.0378 20.5951 65.979 20.9178L65.9457 21.1015L61.3188 21.6115C59.4966 21.8124 58.1302 23.5294 58.2757 25.4338C58.4144 27.2477 59.8446 28.6302 61.5907 28.6302C61.8605 28.6302 61.674 28.6406 61.9447 28.6108L64.6364 28.314L64.2127 30.6469C64.1068 31.2282 63.6182 31.65 63.0508 31.65Z" fill="white"/>
<path fill-rule="evenodd" clip-rule="evenodd" d="M62.3899 27.3472C61.2268 27.3472 60.28 26.4795 60.1873 25.3288C60.0892 24.1091 61.009 23.0118 62.2376 22.883L68.261 22.2525L69.1137 26.6556L62.6267 27.3348C62.5481 27.343 62.4685 27.3472 62.3899 27.3472ZM69.446 22.1284L70.5537 22.0124C70.632 22.0043 70.7115 22 70.7901 22C71.9532 22 72.9002 22.8678 72.9928 24.0186C73.0908 25.2386 72.1711 26.3356 70.9425 26.4641L70.2985 26.5315L69.446 22.1284ZM31.5334 52V48.6512L22.5936 48.6513C22.2658 48.6513 22 48.388 22 48.0634V39.7903C22 35.7233 25.3416 32.4144 29.4491 32.4144H39.4111C39.7389 32.4144 40.0047 32.6775 40.0047 33.0022V52L31.5334 52ZM25.4138 46.3061C25.0859 46.3061 24.8201 46.0429 24.8201 45.7183V43.1318C24.8201 42.8072 25.0859 42.544 25.4138 42.544C25.7415 42.544 26.0074 42.8072 26.0074 43.1318V45.7183C26.0074 46.0429 25.7416 46.3061 25.4138 46.3061ZM28.1839 46.3061C27.8561 46.3061 27.5903 46.0429 27.5903 45.7183V43.1318C27.5903 42.8072 27.8561 42.544 28.1839 42.544C28.5118 42.544 28.7775 42.8072 28.7775 43.1318V45.7183C28.7775 46.0429 28.5118 46.3061 28.1839 46.3061ZM30.954 46.3061C30.6262 46.3061 30.3604 46.0429 30.3604 45.7183V43.1318C30.3604 42.8072 30.6262 42.544 30.954 42.544C31.2818 42.544 31.5477 42.8072 31.5477 43.1318V45.7183C31.5477 46.0429 31.2819 46.3061 30.954 46.3061Z" fill="white"/>
<path fill-rule="evenodd" clip-rule="evenodd" d="M27 52V49.7926H30.433V51.9027H27.5737C27.3728 51.9027 27.1797 51.9371 27 52ZM29.019 31.4781V29.5781C29.019 29.2589 29.2759 29 29.5928 29H36.893C37.2099 29 37.4668 29.2589 37.4668 29.5781V31.4579H29.5928C29.4 31.4579 29.2086 31.4652 29.019 31.4781ZM40.9711 51.9027V40.492C41.2378 40.2769 41.5145 40.0674 41.799 39.8647C42.3179 40.5408 43.1306 40.9767 44.0431 40.9767H52.3393C52.3936 40.9767 52.4475 40.975 52.501 40.9719C52.7101 42.2679 52.6904 43.7572 52.671 45.2152C52.6655 45.6274 52.6599 46.0536 52.6599 46.4617C52.6599 47.441 52.479 48.3783 52.1497 49.2423H50.7779C49.8127 49.2423 49.0295 50.0313 49.0295 51.0036V51.9027L40.9711 51.9027ZM45.0001 49.7967C43.5909 49.7967 42.4443 48.6415 42.4443 47.2218C42.4443 45.8021 43.5909 44.647 45.0001 44.647C46.4097 44.647 47.5563 45.8021 47.5563 47.2218C47.5563 48.6415 46.4095 49.7967 45.0001 49.7967ZM52.3392 39.7935H51.4376V33.9435H52.3392C53.2549 33.9435 54 34.6942 54 35.6167V38.1204C54.0001 39.043 53.2549 39.7935 52.3392 39.7935ZM50.2899 39.7935H48.7649V33.9435H50.2899V39.7935ZM47.6172 39.7935H46.0923V33.9435H47.6172V39.7935ZM44.9447 39.7935H44.0431C43.1273 39.7935 42.3823 39.043 42.3823 38.1204V35.6167C42.3823 34.6939 43.1273 33.9435 44.0431 33.9435H44.9447V39.7935Z" fill="white"/>
</svg>
